<svg width="124" height="124" viewBox="0 0 124 124" fill="none" xmlns="http://www.w3.org/2000/svg">
<path d="M61.9644 108.145C87.3495 108.145 107.928 87.5663 107.928 62.1812C107.928 36.796 87.3495 16.2173 61.9644 16.2173C36.5792 16.2173 16.0005 36.796 16.0005 62.1812C16.0005 87.5663 36.5792 108.145 61.9644 108.145Z" stroke="white" stroke-width="3.67711" stroke-linecap="round" stroke-linejoin="round"/>
<path d="M29.4067 29.7209C38.0008 38.3374 42.8226 50.0133 42.8129 62.1829C42.8226 74.3526 38.0008 86.0285 29.4067 94.6449" stroke="white" stroke-width="3.67711" stroke-linecap="round" stroke-linejoin="round"/>
<path d="M94.5236 29.7209C85.9394 38.3438 81.1201 50.0157 81.1201 62.1829C81.1201 74.3502 85.9394 86.0221 94.5236 94.6449" stroke="white" stroke-width="3.67711" stroke-linecap="round" stroke-linejoin="round"/>
<path d="M16.0005 62.1812H107.928" stroke="white" stroke-width="3.67711" stroke-linecap="round" stroke-linejoin="round"/>
<path d="M61.9644 16.2173V108.145" stroke="white" stroke-width="3.67711" stroke-linecap="round" stroke-linejoin="round"/>
</svg>
