<svg width="220" height="220" viewBox="0 0 220 220" fill="none" xmlns="http://www.w3.org/2000/svg">
<path d="M110 55C103.201 55 96.5552 57.0161 90.9023 60.7932C85.2494 64.5704 80.8434 69.939 78.2417 76.2203C75.6399 82.5015 74.9592 89.4131 76.2855 96.0812C77.6119 102.749 80.8858 108.874 85.6932 113.682C90.5007 118.489 96.6257 121.763 103.294 123.089C109.962 124.416 116.874 123.735 123.155 121.133C129.436 118.532 134.805 114.126 138.582 108.473C142.359 102.82 144.375 96.1737 144.375 89.375C144.375 80.2582 140.753 71.5148 134.307 65.0682C127.86 58.6216 119.117 55 110 55ZM110 110C105.921 110 101.933 108.79 98.5414 106.524C95.1496 104.258 92.5061 101.037 90.945 97.2678C89.3839 93.4991 88.9755 89.3521 89.7713 85.3513C90.5671 81.3504 92.5315 77.6754 95.4159 74.7909C98.3004 71.9065 101.975 69.9421 105.976 69.1463C109.977 68.3505 114.124 68.7589 117.893 70.32C121.662 71.881 124.883 74.5246 127.149 77.9164C129.415 81.3081 130.625 85.2958 130.625 89.375C130.62 94.8434 128.445 100.086 124.578 103.953C120.711 107.82 115.468 109.995 110 110Z" fill="#C5C5C5"/>
<path d="M110 13.75C90.9636 13.75 72.3546 19.395 56.5264 29.9711C40.6982 40.5471 28.3616 55.5793 21.0766 73.1667C13.7917 90.7541 11.8856 110.107 15.5995 128.777C19.3133 147.448 28.4802 164.598 41.941 178.059C55.4018 191.52 72.5519 200.687 91.2226 204.401C109.893 208.114 129.246 206.208 146.833 198.923C164.421 191.638 179.453 179.302 190.029 163.474C200.605 147.645 206.25 129.036 206.25 110C206.221 84.4818 196.071 60.0172 178.027 41.9731C159.983 23.9291 135.518 13.7791 110 13.75ZM68.75 181.342V171.875C68.7555 166.407 70.9302 161.164 74.797 157.297C78.6637 153.43 83.9066 151.255 89.375 151.25H130.625C136.093 151.255 141.336 153.43 145.203 157.297C149.07 161.164 151.245 166.407 151.25 171.875V181.342C138.732 188.651 124.496 192.503 110 192.503C95.504 192.503 81.2683 188.651 68.75 181.342ZM164.945 171.366C164.808 162.349 161.134 153.746 154.714 147.411C148.295 141.076 139.644 137.517 130.625 137.5H89.375C80.3563 137.517 71.7052 141.076 65.2857 147.411C58.8661 153.746 55.1921 162.349 55.055 171.366C42.5877 160.234 33.7957 145.577 29.8433 129.337C25.8909 113.097 26.9645 96.0392 32.9219 80.4228C38.8794 64.8063 49.4397 51.3677 63.2045 41.8864C76.9693 32.4051 93.2893 27.3283 110.003 27.3283C126.718 27.3283 143.038 32.4051 156.802 41.8864C170.567 51.3677 181.128 64.8063 187.085 80.4228C193.042 96.0392 194.116 113.097 190.164 129.337C186.211 145.577 177.412 160.234 164.945 171.366Z" fill="#C5C5C5"/>
</svg>
