<svg width="163" height="44" viewBox="0 0 163 44" fill="none" xmlns="http://www.w3.org/2000/svg">
<g clip-path="url(#clip0_129_822)">
<path d="M13.2881 22.8087C13.9887 22.9102 14.6097 22.9824 15.1496 23.0243C15.6895 23.0666 16.3006 23.0878 16.9826 23.0878C18.2901 23.0878 19.3886 22.9697 20.2795 22.7325C21.1698 22.496 22.0226 22.107 22.8375 21.5653L21.4447 25.067H8.91095C9.19536 24.9317 9.42267 24.784 9.59325 24.6229C9.76382 24.4622 9.89598 24.255 9.99114 24.0013C10.0859 23.7475 10.1518 23.4303 10.1899 23.0497C10.2276 22.6691 10.247 22.1912 10.247 21.616V10.8571C10.247 10.2823 10.228 9.80409 10.1899 9.42347C10.1518 9.04285 10.0807 8.72567 9.97704 8.47192C9.87272 8.21817 9.73527 8.01517 9.56505 7.86292C9.39483 7.71068 9.17633 7.56724 8.9113 7.43155H18.9153C19.1997 7.43155 19.4076 7.42345 19.5405 7.40618C19.6727 7.38962 19.8432 7.34697 20.0522 7.27931V10.4004C19.8055 10.1974 19.569 10.0244 19.3417 9.88022C19.1141 9.73678 18.8631 9.62647 18.5886 9.55035C18.3137 9.47422 17.9962 9.41924 17.6363 9.38541C17.2762 9.35158 16.8592 9.33466 16.3859 9.33466C15.6656 9.33466 15.0788 9.34735 14.6238 9.37272C14.1692 9.3981 13.7237 9.44497 13.2881 9.51228V14.5111H17.2955C17.5229 14.5111 17.7029 14.503 17.8355 14.4857C17.9676 14.4692 18.129 14.4184 18.3186 14.3335V17.1755C18.0723 16.8882 17.7829 16.6933 17.452 16.5918C17.1204 16.4903 16.6228 16.4396 15.9598 16.4396H13.2881V22.8087ZM28.095 21.9205C28.095 22.3607 28.1186 22.7368 28.1662 23.0497C28.2134 23.363 28.2983 23.6421 28.422 23.8871C28.545 24.1324 28.7064 24.3484 28.9052 24.5341C29.104 24.7206 29.3549 24.8982 29.6583 25.067H24.3148C24.6369 24.8809 24.902 24.6952 25.1106 24.5088C25.3189 24.3227 25.4803 24.1116 25.5938 23.8744C25.7076 23.6376 25.788 23.3627 25.8356 23.0497C25.8828 22.7368 25.9067 22.3607 25.9067 21.9205V10.578C25.9067 10.1382 25.8828 9.76215 25.8356 9.44885C25.788 9.13589 25.7027 8.85677 25.5797 8.61148C25.456 8.36654 25.2953 8.15473 25.0965 7.97711C24.8977 7.79949 24.6461 7.61799 24.3434 7.43155H28.7202C28.7388 7.49922 28.7628 7.55455 28.7914 7.59649C28.8199 7.63878 28.8576 7.69376 28.9048 7.76143C28.9521 7.82909 29.0137 7.91367 29.0895 8.01517C29.1649 8.11667 29.2788 8.252 29.4307 8.42117L40.5434 21.0578V10.578C40.5434 10.1382 40.5194 9.76215 40.4722 9.44885C40.4246 9.13589 40.3393 8.86135 40.2163 8.62417C40.093 8.38734 39.9273 8.17623 39.7191 7.9898C39.5104 7.80407 39.2546 7.61799 38.9518 7.43155H44.3235C44.0011 7.61799 43.736 7.80407 43.5277 7.9898C43.3191 8.17623 43.1584 8.38734 43.0446 8.62417C42.9307 8.861 42.85 9.13589 42.8028 9.44885C42.7552 9.76215 42.7316 10.1382 42.7316 10.578V25.9297C41.8978 25.6926 41.1541 25.35 40.5004 24.9021C39.8466 24.4541 39.2165 23.8578 38.6103 23.1131L28.095 11.2124V21.9205ZM59.1022 10.6288C58.458 10.0705 57.7284 9.63916 56.914 9.33466C56.0992 9.03016 55.2466 8.87791 54.3561 8.87791C53.1624 8.87791 52.2052 9.10629 51.4855 9.56303C50.7652 10.0198 50.4057 10.6288 50.4057 11.39C50.4057 11.7287 50.467 12.029 50.5904 12.2908C50.7134 12.5534 50.9407 12.811 51.2727 13.0647C51.604 13.3185 52.0586 13.5849 52.6369 13.8641C53.2146 14.1432 53.9487 14.4692 54.8396 14.841C55.4648 15.0947 56.0001 15.3192 56.4456 15.5134C56.8907 15.708 57.284 15.8902 57.6252 16.059C57.9663 16.2281 58.2599 16.385 58.5062 16.5284C58.7522 16.6722 58.9894 16.829 59.2167 16.9978C60.2966 17.7591 60.8368 18.7321 60.8368 19.9159C60.8368 20.5757 60.6754 21.2189 60.3537 21.8444C60.0312 22.4703 59.5766 23.037 58.9894 23.5445C57.4546 24.864 55.3608 25.5237 52.7085 25.5237C51.7421 25.5237 50.8561 25.4603 50.0508 25.3334C49.2452 25.2066 48.369 24.9909 47.4221 24.6864L46.5125 21.3623C47.5355 22.0728 48.5823 22.6057 49.6529 22.9609C50.7232 23.3161 51.8743 23.4938 53.106 23.4938C53.7499 23.4938 54.3469 23.4219 54.8967 23.2781C55.4461 23.1346 55.9198 22.9401 56.3177 22.6945C56.7156 22.4495 57.0282 22.1616 57.2555 21.8317C57.4828 21.5019 57.5966 21.1427 57.5966 20.7533C57.5966 20.398 57.5064 20.0516 57.3267 19.7129C57.1462 19.3746 56.9048 19.0874 56.6017 18.8502C56.4312 18.7152 56.2465 18.588 56.0477 18.4696C55.8489 18.3515 55.6072 18.2246 55.3228 18.0889C55.0387 17.9536 54.6926 17.7971 54.2856 17.6195C53.8778 17.4419 53.371 17.2262 52.7652 16.9725C52.1777 16.7356 51.6709 16.5245 51.2448 16.3381C50.8184 16.1524 50.4441 15.979 50.122 15.8179C49.7995 15.6572 49.5201 15.5007 49.2836 15.3485C49.0464 15.1962 48.824 15.0274 48.6157 14.841C48.1227 14.4519 47.7392 13.987 47.4647 13.4454C47.1898 12.904 47.0527 12.3377 47.0527 11.7453C47.0527 11.0182 47.2279 10.3623 47.5785 9.77872C47.9289 9.1951 48.4311 8.69641 49.0848 8.28161C49.7382 7.86715 50.5245 7.54997 51.4436 7.33006C52.3624 7.11049 53.3904 7.00018 54.5273 7.00018C55.3231 7.00018 56.0808 7.04706 56.8008 7.13974C57.5209 7.23314 58.2881 7.3808 59.1029 7.5838V10.6288H59.1022ZM67.799 22.8087C68.4997 22.9102 69.1206 22.9824 69.6606 23.0243C70.2005 23.0666 70.8116 23.0878 71.4935 23.0878C72.801 23.0878 73.8996 22.9697 74.7905 22.7325C75.6807 22.496 76.5336 22.107 77.3484 21.5653L75.9556 25.067H63.4219C63.7063 24.9317 63.9336 24.784 64.1042 24.6229C64.2748 24.4622 64.4069 24.255 64.5021 24.0013C64.5969 23.7475 64.6628 23.4303 64.7009 23.0497C64.7386 22.6691 64.7579 22.1912 64.7579 21.616V10.8571C64.7579 10.2823 64.7389 9.80409 64.7009 9.42347C64.6628 9.04285 64.5916 8.72567 64.488 8.47192C64.3837 8.21817 64.2462 8.01517 64.076 7.86292C63.9058 7.71068 63.6873 7.56724 63.4223 7.43155H73.4266C73.711 7.43155 73.9189 7.42345 74.0518 7.40618C74.184 7.38962 74.3545 7.34697 74.5635 7.27931V10.4004C74.3168 10.1974 74.0804 10.0244 73.853 9.88022C73.6254 9.73678 73.3744 9.62647 73.0999 9.55035C72.825 9.47422 72.5075 9.41924 72.1476 9.38541C71.7875 9.35158 71.3705 9.33466 70.8972 9.33466C70.1769 9.33466 69.5901 9.34735 69.1351 9.37272C68.6805 9.3981 68.235 9.44497 67.7994 9.51228V14.5111H71.8068C72.0342 14.5111 72.2142 14.503 72.3468 14.4857C72.4789 14.4692 72.6403 14.4184 72.8299 14.3335V17.1755C72.5836 16.8882 72.2943 16.6933 71.9633 16.5918C71.6317 16.4903 71.1341 16.4396 70.4711 16.4396H67.7994V22.8087H67.799ZM96.9585 9.36003C97.0907 9.05554 97.2003 8.81448 97.2852 8.63685C97.3705 8.45923 97.4272 8.31156 97.4558 8.1928C97.484 8.07473 97.503 7.96055 97.5125 7.85024C97.5217 7.74028 97.5266 7.60072 97.5266 7.43155H102.728C102.103 7.70257 101.79 8.26081 101.79 9.10629C101.79 9.42805 101.818 9.74947 101.875 10.0705L103.723 21.8952C103.78 22.3519 103.841 22.7368 103.907 23.0497C103.974 23.363 104.064 23.6333 104.178 23.8617C104.291 24.0901 104.438 24.2973 104.618 24.4834C104.798 24.6695 105.03 24.864 105.315 25.067H99.5168C99.9714 24.8809 100.294 24.6318 100.483 24.3184C100.672 24.0055 100.767 23.5787 100.767 23.037C100.767 22.8682 100.758 22.6906 100.739 22.5042C100.72 22.3181 100.682 21.9967 100.625 21.5399L99.0336 10.0705L92.2977 25.4223C91.9375 25.1516 91.639 24.9148 91.4021 24.7118C91.165 24.5088 90.9567 24.3015 90.7773 24.0901C90.5968 23.8786 90.4361 23.646 90.2941 23.3923C90.1521 23.1385 89.9956 22.834 89.825 22.4788L83.9416 10.0705L82.1795 21.8952C82.1414 22.2169 82.1083 22.5003 82.0801 22.7452C82.0515 22.9905 82.0374 23.1724 82.0374 23.2908C82.0374 23.6968 82.1227 24.0228 82.2933 24.2677C82.4639 24.513 82.7765 24.7798 83.2315 25.067H78.3144C78.8067 24.6444 79.1669 24.175 79.3942 23.6587C79.6216 23.1431 79.8017 22.4368 79.9342 21.5399L81.6678 10.2735C81.7055 10.0032 81.7389 9.79141 81.7671 9.63916C81.7957 9.48691 81.814 9.36849 81.8239 9.28391C81.833 9.19968 81.8383 9.13166 81.8383 9.08091V8.90329C81.8383 8.59879 81.7626 8.34082 81.611 8.12936C81.4591 7.9179 81.1846 7.6853 80.7867 7.43155H86.0445C86.0445 7.5838 86.0586 7.7068 86.0872 7.79949C86.1157 7.89288 86.1961 8.08319 86.329 8.37042L92.0985 20.4742L96.9585 9.36003ZM114.324 7.40618C115.347 7.40618 116.171 7.4527 116.796 7.54574C117.421 7.63878 117.98 7.80372 118.473 8.04055C119.25 8.39579 119.852 8.86135 120.278 9.43616C120.704 10.0113 120.917 10.646 120.917 11.3393C120.917 11.9144 120.765 12.4519 120.463 12.9506C120.159 13.4496 119.733 13.8602 119.184 14.1812C119.013 14.2827 118.842 14.3761 118.672 14.4604C118.502 14.5453 118.246 14.6553 117.905 14.7902C118.454 14.9259 118.885 15.044 119.198 15.1455C119.511 15.247 119.827 15.3823 120.15 15.5515C121.002 15.9744 121.66 16.5326 122.125 17.2262C122.589 17.9201 122.821 18.6814 122.821 19.5099C122.821 20.5249 122.485 21.4599 121.813 22.3138C121.14 23.1681 120.216 23.8409 119.042 24.3311C118.719 24.4668 118.388 24.5807 118.047 24.6737C117.706 24.7671 117.336 24.8386 116.938 24.8894C116.54 24.9401 116.095 24.9824 115.603 25.0163C115.11 25.0504 114.551 25.067 113.926 25.067H107.559C107.844 24.9317 108.071 24.784 108.241 24.6229C108.412 24.4622 108.544 24.255 108.639 24.0013C108.734 23.7475 108.8 23.4346 108.838 23.0624C108.876 22.6906 108.895 22.2169 108.895 21.6414V10.8571C108.895 10.2823 108.876 9.80832 108.838 9.43616C108.8 9.06435 108.734 8.75104 108.639 8.49729C108.544 8.24355 108.412 8.03667 108.241 7.87561C108.071 7.7149 107.844 7.56724 107.559 7.43155H112.334C112.618 7.43155 112.969 7.42345 113.385 7.40618H114.324ZM111.822 14.5365C112.087 14.5707 112.296 14.5872 112.448 14.5872H112.959C114.38 14.5872 115.526 14.3335 116.398 13.826C117.27 13.3185 117.706 12.6334 117.706 11.7706C117.706 10.9586 117.355 10.3162 116.654 9.84215C115.953 9.36884 115.024 9.13166 113.869 9.13166C113.585 9.13166 113.296 9.14012 113.002 9.15704C112.708 9.17395 112.315 9.2166 111.822 9.28391V14.5365ZM111.822 22.9355C112.372 23.037 112.831 23.1047 113.201 23.1385C113.571 23.1727 113.992 23.1893 114.466 23.1893C116.076 23.1893 117.312 22.902 118.175 22.3265C119.036 21.7517 119.468 20.9309 119.468 19.8652C119.468 18.6979 119.003 17.7933 118.075 17.1501C117.582 16.8118 117.038 16.5707 116.441 16.4269C115.844 16.2835 115.062 16.2112 114.096 16.2112C113.698 16.2112 113.333 16.22 113.002 16.2366C112.67 16.2535 112.277 16.2873 111.822 16.3381V22.9355ZM129.926 22.8594C130.59 22.9443 131.267 23.0117 131.959 23.0624C132.65 23.1131 133.318 23.1385 133.963 23.1385C134.493 23.1385 134.986 23.1093 135.44 23.0497C135.895 22.9909 136.336 22.8975 136.762 22.7706C137.188 22.6437 137.614 22.4749 138.041 22.2631C138.467 22.0516 138.927 21.7937 139.419 21.4892L137.827 25.067H125.55C125.834 24.9299 126.061 24.7801 126.232 24.617C126.402 24.4545 126.535 24.2441 126.63 23.9868C126.724 23.7299 126.79 23.4141 126.828 23.0398C126.866 22.6656 126.885 22.1908 126.885 21.6157V10.8314C126.885 10.2566 126.866 9.78259 126.828 9.41043C126.79 9.03827 126.724 8.72531 126.63 8.47157C126.535 8.21782 126.402 8.01094 126.232 7.84988C126.062 7.68918 125.834 7.54151 125.55 7.40583H131.262C130.978 7.54151 130.751 7.68918 130.58 7.84988C130.409 8.01094 130.277 8.21782 130.182 8.47157C130.087 8.72531 130.021 9.03827 129.983 9.41043C129.945 9.78259 129.926 10.2563 129.926 10.8314V22.8594ZM145.615 22.8087C146.315 22.9102 146.936 22.9824 147.476 23.0243C148.016 23.0666 148.627 23.0878 149.309 23.0878C150.617 23.0878 151.715 22.9697 152.606 22.7325C153.496 22.496 154.349 22.107 155.164 21.5653L153.772 25.067H141.238C141.522 24.9317 141.75 24.784 141.92 24.6229C142.091 24.4622 142.223 24.255 142.318 24.0013C142.413 23.7475 142.479 23.4303 142.517 23.0497C142.554 22.6691 142.573 22.1912 142.573 21.616V10.8571C142.573 10.2823 142.554 9.80409 142.517 9.42347C142.479 9.04285 142.408 8.72567 142.304 8.47192C142.2 8.21817 142.062 8.01517 141.892 7.86292C141.721 7.71068 141.503 7.56724 141.238 7.43155H151.242C151.527 7.43155 151.735 7.42345 151.868 7.40618C152 7.38962 152.17 7.34697 152.379 7.27931V10.4004C152.133 10.1974 151.896 10.0244 151.669 9.88022C151.441 9.73678 151.19 9.62647 150.915 9.55035C150.641 9.47422 150.323 9.41924 149.963 9.38541C149.603 9.35158 149.186 9.33466 148.713 9.33466C147.992 9.33466 147.405 9.34735 146.951 9.37272C146.496 9.3981 146.05 9.44497 145.615 9.51228V14.5111H149.622C149.85 14.5111 150.029 14.503 150.162 14.4857C150.294 14.4692 150.456 14.4184 150.645 14.3335V17.1755C150.399 16.8882 150.109 16.6933 149.778 16.5918C149.447 16.4903 148.949 16.4396 148.286 16.4396H145.615V22.8087ZM10.6861 34.4765V34.8877C10.6861 35.1383 10.7323 35.336 10.8253 35.4809C10.918 35.6261 11.0773 35.7336 11.3032 35.804C11.5291 35.8745 11.8305 35.9196 12.2068 35.939C12.5832 35.9588 13.0615 35.9683 13.6409 35.9683C14.2086 35.9683 14.6636 35.9489 15.0055 35.9094C15.347 35.8703 15.6078 35.7998 15.7879 35.698C15.9672 35.5961 16.086 35.4629 16.1442 35.2987C16.2023 35.1344 16.2312 34.9226 16.2312 34.6643C16.2312 34.351 16.1706 34.118 16.0487 33.9654C15.9271 33.8125 15.7413 33.705 15.4922 33.6423C15.2427 33.5799 14.936 33.5446 14.5709 33.5365C14.2058 33.5288 13.7801 33.5171 13.2934 33.5013C12.5864 33.4703 11.926 33.4368 11.3117 33.4016C10.6974 33.3663 10.1645 33.2704 9.71237 33.1136C9.2602 32.9571 8.90425 32.7083 8.6431 32.3675C8.38231 32.0271 8.25226 31.5354 8.25226 30.8933C8.25226 30.2903 8.38513 29.8205 8.65191 29.4836C8.91835 29.1471 9.29192 28.8982 9.77298 28.7375C10.2537 28.5772 10.8218 28.481 11.4766 28.4496C12.1311 28.4186 12.8525 28.4027 13.6409 28.4027C14.3017 28.4027 14.9272 28.4186 15.5183 28.4496C16.1093 28.481 16.6221 28.573 17.0566 28.7259C17.4911 28.8785 17.8358 29.1136 18.091 29.4308C18.3458 29.7479 18.4734 30.1962 18.4734 30.7756V31.0583H15.9701V30.7763C15.9701 30.5413 15.9324 30.3576 15.8573 30.2244C15.7819 30.0912 15.6515 29.9915 15.4661 29.9249C15.2807 29.8586 15.0404 29.8191 14.7447 29.8075C14.449 29.7959 14.0811 29.7899 13.6409 29.7899C13.0153 29.7899 12.5138 29.8036 12.1371 29.8311C11.7603 29.8586 11.4706 29.9115 11.268 29.9897C11.065 30.0683 10.9289 30.1797 10.8595 30.3245C10.7901 30.4697 10.7552 30.6593 10.7552 30.8944C10.7552 31.1686 10.7841 31.38 10.8422 31.5288C10.9 31.6775 11.0304 31.7913 11.2334 31.8696C11.4361 31.9481 11.7258 32.0028 12.1025 32.0341C12.4789 32.0655 12.9861 32.093 13.6236 32.1162C14.6319 32.1554 15.4633 32.2061 16.1181 32.2689C16.7725 32.3316 17.2941 32.4472 17.6825 32.6153C18.0709 32.7837 18.3433 33.0266 18.4994 33.3438C18.6559 33.6609 18.7341 34.1015 18.7341 34.6654C18.7341 35.2839 18.6267 35.7716 18.4124 36.1279C18.1978 36.4842 17.8763 36.7545 17.4474 36.9385C17.0185 37.1225 16.4857 37.2381 15.8481 37.2849C15.2106 37.3318 14.4751 37.3554 13.6405 37.3554C12.9219 37.3554 12.2326 37.3456 11.5718 37.3262C10.9113 37.3064 10.3291 37.2205 9.82479 37.0679C9.32082 36.9153 8.92117 36.6724 8.62548 36.3397C8.33015 36.007 8.18213 35.5232 8.18213 34.8888V34.4775H10.6861V34.4765Z" fill="white"/>
<path d="M31.6195 29.6157V28.4027H40.0887V29.6157H36.5378V39.6949H35.1704V29.6157H31.6195Z" fill="white"/>
<path d="M65.2417 28.0433V34.7221C65.2417 35.3741 65.1032 35.8876 64.8265 36.2636C64.5499 36.6393 64.1668 36.9192 63.6787 37.1031C63.1898 37.2867 62.6069 37.402 61.9303 37.4478C61.2529 37.4936 60.5142 37.5165 59.7135 37.5165C58.9364 37.5165 58.2122 37.4936 57.5411 37.4478C56.8698 37.402 56.2897 37.2871 55.8012 37.1031C55.3124 36.9195 54.9268 36.6414 54.6442 36.27C54.3615 35.8985 54.2202 35.3822 54.2202 34.7221V28.0433H56.7637V34.7221C56.7637 34.9646 56.8017 35.1651 56.8786 35.3237C56.955 35.4823 57.102 35.6102 57.3202 35.7057C57.538 35.802 57.8382 35.871 58.221 35.9126C58.6034 35.9546 59.1013 35.9754 59.7135 35.9754C60.3021 35.9754 60.788 35.9588 61.1708 35.9253C61.5532 35.8918 61.8598 35.8273 62.0892 35.7308C62.319 35.6349 62.4779 35.5052 62.5664 35.3424C62.6545 35.1792 62.6986 34.9723 62.6986 34.7218V28.0433H65.2417ZM78.999 27.7687H85.2387C86.1452 27.7687 86.9205 27.8346 87.5655 27.9661C88.2104 28.0976 88.7419 28.3083 89.1602 28.5976C89.5785 28.887 89.8862 29.2666 90.0839 29.7356C90.2813 30.2051 90.3799 30.7728 90.3799 31.4393V33.7681C90.3799 34.2858 90.319 34.7768 90.197 35.242C90.0747 35.7068 89.8425 36.1167 89.4996 36.4719C89.1567 36.8272 88.6774 37.1102 88.0617 37.3206C87.4456 37.531 86.6442 37.6363 85.6567 37.6363H78.9987V27.7687H78.999ZM85.6571 36.0184C86.0754 36.0184 86.4268 35.9524 86.7115 35.821C86.9959 35.6892 87.2257 35.5183 87.3998 35.3079C87.5739 35.0971 87.6962 34.8585 87.7656 34.5907C87.8354 34.3232 87.8703 34.049 87.8703 33.7685V31.4396C87.8703 31.0276 87.8238 30.6897 87.7307 30.4264C87.6374 30.1631 87.4869 29.9548 87.2775 29.8015C87.0685 29.6482 86.7954 29.5407 86.4585 29.4791C86.1216 29.4177 85.7149 29.3867 85.2387 29.3867H81.509V36.018L85.6571 36.0184ZM106.618 37.8129H103.976V27.945H106.618V37.8129ZM128.335 28.1007C129.074 28.1768 129.689 28.3354 130.182 28.5765C130.674 28.8176 131.041 29.1686 131.281 29.6296C131.521 30.0909 131.641 30.7016 131.641 31.4629V34.0257C131.641 34.787 131.53 35.4044 131.309 35.8781C131.087 36.3521 130.736 36.72 130.256 36.9819C129.776 37.2441 129.162 37.4217 128.417 37.5148C127.672 37.6078 126.776 37.6543 125.729 37.6543C124.658 37.6543 123.749 37.612 123.005 37.5274C122.259 37.4429 121.656 37.2716 121.194 37.0136C120.732 36.7556 120.397 36.3877 120.188 35.9098C119.978 35.4319 119.873 34.8039 119.873 34.0257V31.4629C119.873 30.727 119.971 30.1307 120.169 29.674C120.366 29.2172 120.692 28.8644 121.148 28.6146C121.604 28.365 122.207 28.198 122.959 28.1134C123.71 28.0288 124.633 27.9865 125.729 27.9865C126.727 27.9865 127.596 28.0246 128.335 28.1007ZM124.03 29.6359C123.611 29.6951 123.294 29.797 123.078 29.9404C122.863 30.0842 122.721 30.2787 122.654 30.524C122.586 30.7693 122.546 31.0823 122.534 31.4629V34.0257C122.534 34.4994 122.577 34.8737 122.663 35.1486C122.749 35.4235 122.906 35.6307 123.134 35.7702C123.362 35.9098 123.685 35.9986 124.104 36.0367C124.523 36.0747 125.065 36.0938 125.729 36.0938C126.333 36.0938 126.841 36.0726 127.254 36.0303C127.666 35.988 128.002 35.8954 128.26 35.7512C128.519 35.6074 128.704 35.3981 128.814 35.1232C128.925 34.8483 128.981 34.4825 128.981 34.0257V31.4629C128.993 31.0146 128.941 30.6636 128.824 30.4098C128.707 30.1561 128.519 29.9658 128.26 29.8389C128.002 29.712 127.663 29.6317 127.244 29.5978C126.825 29.564 126.32 29.5471 125.729 29.5471C125.015 29.5471 124.448 29.5767 124.03 29.6359ZM146.723 34.4765V34.8878C146.723 35.1383 146.769 35.3361 146.862 35.4809C146.955 35.6261 147.114 35.7336 147.34 35.8041C147.567 35.8746 147.867 35.9197 148.244 35.9391C148.62 35.9588 149.099 35.9683 149.678 35.9683C150.246 35.9683 150.701 35.9489 151.042 35.9095C151.384 35.8703 151.645 35.7998 151.825 35.698C152.005 35.5961 152.123 35.4629 152.181 35.2987C152.239 35.1345 152.268 34.9227 152.268 34.6643C152.268 34.351 152.207 34.1181 152.086 33.9655C151.964 33.8125 151.778 33.705 151.529 33.6423C151.28 33.5799 150.973 33.5447 150.608 33.5366C150.243 33.5288 149.817 33.5172 149.33 33.5013C148.623 33.4703 147.963 33.4368 147.349 33.4016C146.734 33.3663 146.201 33.2705 145.75 33.1136C145.298 32.9572 144.941 32.7084 144.68 32.3676C144.42 32.0271 144.29 31.5355 144.29 30.8934C144.29 30.2904 144.423 29.8206 144.689 29.4836C144.956 29.1471 145.329 28.8983 145.811 28.7376C146.291 28.5772 146.86 28.481 147.514 28.4496C148.169 28.4186 148.89 28.4028 149.679 28.4028C150.339 28.4028 150.965 28.4186 151.556 28.4496C152.147 28.481 152.66 28.573 153.094 28.7259C153.529 28.8785 153.874 29.1136 154.129 29.4308C154.384 29.748 154.511 30.1963 154.511 30.7756V31.0583H152.008V30.7763C152.008 30.5413 151.97 30.3577 151.895 30.2245C151.819 30.0912 151.689 29.9915 151.504 29.9249C151.318 29.8586 151.078 29.8192 150.783 29.8075C150.487 29.7959 150.119 29.7899 149.679 29.7899C149.053 29.7899 148.552 29.8037 148.175 29.8311C147.798 29.8586 147.508 29.9115 147.306 29.9897C147.103 30.0683 146.967 30.1797 146.897 30.3245C146.828 30.4697 146.793 30.6593 146.793 30.8944C146.793 31.1686 146.822 31.3801 146.88 31.5288C146.937 31.6775 147.068 31.7913 147.271 31.8696C147.473 31.9482 147.763 32.0028 148.14 32.0342C148.517 32.0655 149.024 32.093 149.661 32.1163C150.669 32.1554 151.5 32.2061 152.155 32.2689C152.81 32.3316 153.331 32.4472 153.72 32.6153C154.108 32.7838 154.38 33.0266 154.536 33.3438C154.693 33.661 154.771 34.1015 154.771 34.6654C154.771 35.2839 154.664 35.7717 154.449 36.128C154.235 36.4843 153.913 36.7546 153.485 36.9385C153.056 37.1225 152.523 37.2381 151.886 37.285C151.248 37.3318 150.512 37.3555 149.678 37.3555C148.959 37.3555 148.27 37.3456 147.61 37.3262C146.949 37.3065 146.366 37.2205 145.863 37.0679C145.358 36.9153 144.959 36.6725 144.663 36.3398C144.368 36.0071 144.22 35.5232 144.22 34.8888V34.4775H146.723V34.4765ZM157.075 29.9816C156.873 30.1889 156.628 30.2921 156.341 30.2921C156.053 30.2921 155.809 30.1889 155.607 29.9816C155.407 29.7758 155.306 29.5259 155.306 29.2327C155.306 28.9427 155.408 28.6946 155.61 28.4884C155.812 28.2833 156.055 28.1807 156.341 28.1807C156.628 28.1807 156.873 28.2833 157.075 28.4884C157.278 28.6935 157.379 28.9416 157.379 29.2327C157.379 29.5252 157.278 29.7748 157.075 29.9816ZM155.71 28.592C155.537 28.7693 155.45 28.9832 155.45 29.2345C155.45 29.4875 155.536 29.7029 155.709 29.8812C155.882 30.0595 156.092 30.1487 156.34 30.1487C156.588 30.1487 156.799 30.0595 156.972 29.8812C157.145 29.7029 157.232 29.4875 157.232 29.2345C157.232 28.9832 157.145 28.7693 156.972 28.592C156.798 28.4137 156.587 28.3245 156.34 28.3245C156.095 28.3245 155.884 28.4137 155.71 28.592ZM156.321 28.6509C156.462 28.6509 156.565 28.665 156.632 28.6924C156.749 28.7425 156.808 28.8401 156.808 28.986C156.808 29.0896 156.772 29.1661 156.697 29.2147C156.658 29.2405 156.603 29.2592 156.533 29.2708C156.622 29.2852 156.687 29.3226 156.728 29.3839C156.769 29.4452 156.79 29.5051 156.79 29.5636V29.6486C156.79 29.6754 156.791 29.7039 156.793 29.7346C156.795 29.7652 156.798 29.7857 156.803 29.7948L156.81 29.8093H156.622C156.621 29.8054 156.62 29.8019 156.619 29.798C156.618 29.7941 156.617 29.7899 156.616 29.785L156.612 29.748V29.6563C156.612 29.5224 156.576 29.434 156.504 29.391C156.462 29.3663 156.388 29.354 156.281 29.354H156.123V29.8096H155.923V28.6512L156.321 28.6509ZM156.537 28.8334C156.486 28.8049 156.406 28.7904 156.294 28.7904H156.123V29.2102H156.305C156.39 29.2102 156.453 29.2017 156.496 29.1841C156.575 29.1527 156.614 29.0921 156.614 29.0029C156.613 28.9187 156.588 28.8623 156.537 28.8334Z" fill="white"/>
<path d="M1.9707 1.48157H161.092V3.77693H1.9707V1.48157Z" fill="url(#paint0_linear_129_822)"/>
<path d="M1.85352 1.48157H4.26165V42.6884H1.85352V1.48157Z" fill="url(#paint1_linear_129_822)"/>
<path d="M1.9707 40.9534H161.092V43.2487H1.9707V40.9534Z" fill="url(#paint2_linear_129_822)"/>
<path d="M159.036 1.83398H161.444V43.0408H159.036V1.83398Z" fill="url(#paint3_linear_129_822)"/>
</g>
<defs>
<linearGradient id="paint0_linear_129_822" x1="1.9707" y1="2.62907" x2="161.092" y2="2.62907" gradientUnits="userSpaceOnUse">
<stop offset="0.2088"/>
<stop offset="1" stop-color="white"/>
</linearGradient>
<linearGradient id="paint1_linear_129_822" x1="2.99168" y1="1.47783" x2="3.07979" y2="29.0555" gradientUnits="userSpaceOnUse">
<stop offset="0.2088"/>
<stop offset="1" stop-color="white"/>
</linearGradient>
<linearGradient id="paint2_linear_129_822" x1="110.898" y1="81.0723" x2="52.1645" y2="3.12989" gradientUnits="userSpaceOnUse">
<stop offset="0.2088"/>
<stop offset="1" stop-color="white"/>
</linearGradient>
<linearGradient id="paint3_linear_129_822" x1="160.175" y1="43.0444" x2="160.262" y2="15.4669" gradientUnits="userSpaceOnUse">
<stop offset="0.2088"/>
<stop offset="1" stop-color="white"/>
</linearGradient>
<clipPath id="clip0_129_822">
<rect width="161.412" height="43.2312" fill="white" transform="translate(0.736816 0.749573)"/>
</clipPath>
</defs>
</svg>
