<svg width="250" height="133" viewBox="0 0 250 133" fill="none" xmlns="http://www.w3.org/2000/svg">
<path d="M120.713 60.9113C119.44 62.1698 117.723 62.8757 115.934 62.8757C114.144 62.8757 112.427 62.1698 111.155 60.9113L95.559 45.3156C94.3005 44.0435 93.5946 42.3262 93.5946 40.5367C93.5946 38.7472 94.3005 37.0299 95.559 35.7577L128.466 2.73951C129.221 1.97381 130.151 1.40182 131.175 1.07213C132.199 0.742431 133.287 0.664773 134.348 0.845751L147.715 3.0737C149.106 3.31168 150.388 3.97522 151.386 4.97282C152.384 5.97043 153.047 7.25296 153.285 8.64358L155.513 22.0113C155.694 23.0717 155.616 24.1602 155.287 25.1842C154.957 26.2082 154.385 27.1374 153.619 27.8931L120.713 60.9113ZM140.474 20.4294C140.474 19.5481 140.213 18.6866 139.724 17.9539C139.234 17.2211 138.538 16.65 137.724 16.3127C136.91 15.9755 136.014 15.8872 135.149 16.0592C134.285 16.2311 133.491 16.6555 132.868 17.2786C132.245 17.9018 131.82 18.6958 131.648 19.5601C131.476 20.4245 131.565 21.3204 131.902 22.1346C132.239 22.9488 132.81 23.6448 133.543 24.1344C134.276 24.624 135.137 24.8853 136.019 24.8853C137.2 24.8853 138.334 24.4159 139.169 23.5802C140.005 22.7446 140.474 21.6112 140.474 20.4294Z" fill="#EF4444"/>
<path d="M7.51041 123.894C6.23036 123.894 5.11443 123.689 4.1626 123.279C3.21077 122.869 2.47229 122.294 1.94714 121.556C1.4384 120.817 1.18404 119.947 1.18404 118.946V118.331C1.18404 118.249 1.20865 118.183 1.25788 118.134C1.32353 118.068 1.39738 118.036 1.47943 118.036H3.67028C3.75233 118.036 3.81797 118.068 3.86721 118.134C3.93285 118.183 3.96567 118.249 3.96567 118.331V118.799C3.96567 119.554 4.30209 120.185 4.97494 120.694C5.64778 121.186 6.56679 121.433 7.73195 121.433C8.73301 121.433 9.48791 121.219 9.99665 120.793C10.5054 120.366 10.7598 119.816 10.7598 119.143C10.7598 118.684 10.6203 118.298 10.3413 117.986C10.0623 117.658 9.66023 117.363 9.13508 117.1C8.62634 116.838 7.85504 116.509 6.82115 116.115C5.65599 115.689 4.71236 115.287 3.99029 114.909C3.26821 114.532 2.66101 114.023 2.16869 113.383C1.69277 112.727 1.45481 111.914 1.45481 110.946C1.45481 109.502 1.97996 108.361 3.03025 107.524C4.08055 106.687 5.48367 106.269 7.23963 106.269C8.47044 106.269 9.55356 106.482 10.489 106.909C11.4408 107.336 12.1793 107.935 12.7044 108.706C13.2296 109.461 13.4922 110.339 13.4922 111.34V111.758C13.4922 111.84 13.4593 111.914 13.3937 111.98C13.3445 112.029 13.2788 112.054 13.1968 112.054H10.9813C10.8992 112.054 10.8254 112.029 10.7598 111.98C10.7105 111.914 10.6859 111.84 10.6859 111.758V111.488C10.6859 110.716 10.3659 110.068 9.72587 109.543C9.10226 109.001 8.23248 108.731 7.11655 108.731C6.21395 108.731 5.50829 108.919 4.99955 109.297C4.50723 109.674 4.26107 110.208 4.26107 110.897C4.26107 111.389 4.39235 111.791 4.65493 112.103C4.9175 112.415 5.31136 112.702 5.8365 112.965C6.36165 113.211 7.17399 113.531 8.27351 113.925C9.43868 114.368 10.3659 114.77 11.0551 115.131C11.7608 115.492 12.3598 116.001 12.8521 116.657C13.3609 117.297 13.6152 118.101 13.6152 119.069C13.6152 120.546 13.0655 121.72 11.9659 122.59C10.8828 123.459 9.39765 123.894 7.51041 123.894ZM22.8911 113.137C22.8911 113.219 22.8583 113.293 22.7927 113.358C22.7434 113.408 22.6778 113.432 22.5957 113.432H20.0849C20.0028 113.432 19.9618 113.473 19.9618 113.555V119.488C19.9618 120.112 20.0931 120.563 20.3557 120.842C20.6346 121.121 21.0695 121.26 21.6603 121.26H22.3988C22.4809 121.26 22.5465 121.293 22.5957 121.359C22.6614 121.408 22.6942 121.474 22.6942 121.556V123.402C22.6942 123.582 22.5957 123.689 22.3988 123.722L21.1188 123.746C19.8223 123.746 18.8541 123.525 18.214 123.082C17.574 122.639 17.2458 121.802 17.2294 120.571V113.555C17.2294 113.473 17.1884 113.432 17.1063 113.432H15.7032C15.6211 113.432 15.5473 113.408 15.4816 113.358C15.4324 113.293 15.4078 113.219 15.4078 113.137V111.414C15.4078 111.332 15.4324 111.266 15.4816 111.217C15.5473 111.151 15.6211 111.118 15.7032 111.118H17.1063C17.1884 111.118 17.2294 111.077 17.2294 110.995V108.115C17.2294 108.033 17.254 107.967 17.3032 107.918C17.3689 107.853 17.4427 107.82 17.5248 107.82H19.6664C19.7485 107.82 19.8141 107.853 19.8633 107.918C19.929 107.967 19.9618 108.033 19.9618 108.115V110.995C19.9618 111.077 20.0028 111.118 20.0849 111.118H22.5957C22.6778 111.118 22.7434 111.151 22.7927 111.217C22.8583 111.266 22.8911 111.332 22.8911 111.414V113.137ZM30.2273 110.921C31.2612 110.921 32.172 111.102 32.9597 111.463C33.7475 111.824 34.3547 112.325 34.7814 112.965C35.208 113.588 35.4214 114.302 35.4214 115.106V123.402C35.4214 123.484 35.3886 123.558 35.3229 123.623C35.2737 123.673 35.208 123.697 35.126 123.697H32.8613C32.7792 123.697 32.7054 123.673 32.6397 123.623C32.5905 123.558 32.5659 123.484 32.5659 123.402V122.614C32.5659 122.565 32.5495 122.54 32.5167 122.54C32.4838 122.524 32.451 122.532 32.4182 122.565C31.6141 123.451 30.4489 123.894 28.9227 123.894C27.6919 123.894 26.6744 123.582 25.8703 122.959C25.0826 122.335 24.6887 121.408 24.6887 120.177C24.6887 118.897 25.1318 117.904 26.018 117.199C26.9206 116.477 28.1842 116.115 29.8089 116.115H32.4428C32.5249 116.115 32.5659 116.074 32.5659 115.992V115.402C32.5659 114.762 32.3772 114.269 31.9997 113.925C31.6223 113.564 31.0561 113.383 30.3012 113.383C29.6776 113.383 29.1688 113.498 28.775 113.728C28.3975 113.941 28.1596 114.245 28.0611 114.638C28.0119 114.835 27.897 114.917 27.7165 114.885L25.3287 114.589C25.2467 114.573 25.1728 114.548 25.1072 114.515C25.0579 114.466 25.0415 114.409 25.0579 114.343C25.1892 113.342 25.7226 112.521 26.658 111.881C27.6098 111.241 28.7996 110.921 30.2273 110.921ZM29.6366 121.63C30.4407 121.63 31.1299 121.416 31.7043 120.989C32.2787 120.563 32.5659 120.021 32.5659 119.365V118.208C32.5659 118.126 32.5249 118.085 32.4428 118.085H30.375C29.5053 118.085 28.816 118.249 28.3073 118.577C27.815 118.905 27.5688 119.373 27.5688 119.98C27.5688 120.505 27.7575 120.916 28.135 121.211C28.5288 121.49 29.0294 121.63 29.6366 121.63ZM44.1469 110.971C44.672 110.971 45.1315 111.077 45.5254 111.291C45.6567 111.356 45.7059 111.479 45.6731 111.66L45.2546 113.875C45.2382 114.072 45.1233 114.13 44.91 114.048C44.6638 113.966 44.3766 113.925 44.0484 113.925C43.8351 113.925 43.671 113.933 43.5561 113.949C42.8668 113.982 42.2924 114.228 41.8329 114.688C41.3734 115.131 41.1437 115.713 41.1437 116.435V123.402C41.1437 123.484 41.1109 123.558 41.0452 123.623C40.996 123.673 40.9303 123.697 40.8483 123.697H38.5836C38.5015 123.697 38.4277 123.673 38.362 123.623C38.3128 123.558 38.2882 123.484 38.2882 123.402V111.414C38.2882 111.332 38.3128 111.266 38.362 111.217C38.4277 111.151 38.5015 111.118 38.5836 111.118H40.8483C40.9303 111.118 40.996 111.151 41.0452 111.217C41.1109 111.266 41.1437 111.332 41.1437 111.414V112.521C41.1437 112.587 41.1519 112.628 41.1683 112.645C41.2011 112.645 41.2339 112.62 41.2668 112.571C41.956 111.504 42.9161 110.971 44.1469 110.971ZM54.4307 113.137C54.4307 113.219 54.3979 113.293 54.3322 113.358C54.283 113.408 54.2173 113.432 54.1353 113.432H51.6244C51.5424 113.432 51.5013 113.473 51.5013 113.555V119.488C51.5013 120.112 51.6326 120.563 51.8952 120.842C52.1742 121.121 52.6091 121.26 53.1999 121.26H53.9384C54.0204 121.26 54.0861 121.293 54.1353 121.359C54.2009 121.408 54.2338 121.474 54.2338 121.556V123.402C54.2338 123.582 54.1353 123.689 53.9384 123.722L52.6583 123.746C51.3619 123.746 50.3936 123.525 49.7536 123.082C49.1136 122.639 48.7854 121.802 48.7689 120.571V113.555C48.7689 113.473 48.7279 113.432 48.6459 113.432H47.2427C47.1607 113.432 47.0868 113.408 47.0212 113.358C46.972 113.293 46.9473 113.219 46.9473 113.137V111.414C46.9473 111.332 46.972 111.266 47.0212 111.217C47.0868 111.151 47.1607 111.118 47.2427 111.118H48.6459C48.7279 111.118 48.7689 111.077 48.7689 110.995V108.115C48.7689 108.033 48.7936 107.967 48.8428 107.918C48.9084 107.853 48.9823 107.82 49.0643 107.82H51.206C51.288 107.82 51.3537 107.853 51.4029 107.918C51.4685 107.967 51.5013 108.033 51.5013 108.115V110.995C51.5013 111.077 51.5424 111.118 51.6244 111.118H54.1353C54.2173 111.118 54.283 111.151 54.3322 111.217C54.3979 111.266 54.4307 111.332 54.4307 111.414V113.137ZM67.7288 123.894C66.4488 123.894 65.3329 123.689 64.381 123.279C63.4292 122.869 62.6907 122.294 62.1656 121.556C61.6568 120.817 61.4025 119.947 61.4025 118.946V118.331C61.4025 118.249 61.4271 118.183 61.4763 118.134C61.5419 118.068 61.6158 118.036 61.6979 118.036H63.8887C63.9708 118.036 64.0364 118.068 64.0856 118.134C64.1513 118.183 64.1841 118.249 64.1841 118.331V118.799C64.1841 119.554 64.5205 120.185 65.1934 120.694C65.8662 121.186 66.7852 121.433 67.9504 121.433C68.9514 121.433 69.7063 121.219 70.2151 120.793C70.7238 120.366 70.9782 119.816 70.9782 119.143C70.9782 118.684 70.8387 118.298 70.5597 117.986C70.2807 117.658 69.8786 117.363 69.3535 117.1C68.8448 116.838 68.0735 116.509 67.0396 116.115C65.8744 115.689 64.9308 115.287 64.2087 114.909C63.4866 114.532 62.8794 114.023 62.3871 113.383C61.9112 112.727 61.6732 111.914 61.6732 110.946C61.6732 109.502 62.1984 108.361 63.2487 107.524C64.299 106.687 65.7021 106.269 67.4581 106.269C68.6889 106.269 69.772 106.482 70.7074 106.909C71.6592 107.336 72.3977 107.935 72.9229 108.706C73.448 109.461 73.7106 110.339 73.7106 111.34V111.758C73.7106 111.84 73.6778 111.914 73.6121 111.98C73.5629 112.029 73.4972 112.054 73.4152 112.054H71.1997C71.1177 112.054 71.0438 112.029 70.9782 111.98C70.9289 111.914 70.9043 111.84 70.9043 111.758V111.488C70.9043 110.716 70.5843 110.068 69.9443 109.543C69.3207 109.001 68.4509 108.731 67.335 108.731C66.4324 108.731 65.7267 108.919 65.218 109.297C64.7256 109.674 64.4795 110.208 64.4795 110.897C64.4795 111.389 64.6108 111.791 64.8733 112.103C65.1359 112.415 65.5298 112.702 66.0549 112.965C66.5801 113.211 67.3924 113.531 68.4919 113.925C69.6571 114.368 70.5843 114.77 71.2736 115.131C71.9792 115.492 72.5782 116.001 73.0706 116.657C73.5793 117.297 73.8337 118.101 73.8337 119.069C73.8337 120.546 73.2839 121.72 72.1844 122.59C71.1013 123.459 69.6161 123.894 67.7288 123.894ZM87.0481 115.992C87.1138 116.403 87.1466 116.862 87.1466 117.371L87.122 118.134C87.122 118.331 87.0235 118.429 86.8266 118.429H79.1217C79.0397 118.429 78.9986 118.47 78.9986 118.552C79.0479 119.094 79.1217 119.463 79.2202 119.66C79.614 120.842 80.5741 121.441 82.1003 121.457C83.2162 121.457 84.1024 120.998 84.7588 120.079C84.8245 119.98 84.9065 119.931 85.005 119.931C85.0706 119.931 85.1281 119.956 85.1773 120.005L86.7035 121.26C86.8512 121.375 86.8758 121.506 86.7774 121.654C86.2686 122.376 85.5876 122.934 84.7342 123.328C83.8973 123.722 82.9619 123.919 81.928 123.919C80.6479 123.919 79.5566 123.632 78.654 123.057C77.7678 122.483 77.1196 121.679 76.7093 120.645C76.3319 119.759 76.1432 118.528 76.1432 116.952C76.1432 116.001 76.2416 115.229 76.4386 114.638C76.7668 113.49 77.3822 112.587 78.2848 111.931C79.2038 111.258 80.3033 110.921 81.5833 110.921C84.8163 110.921 86.6379 112.612 87.0481 115.992ZM81.5833 113.383C80.9761 113.383 80.4674 113.539 80.0571 113.851C79.6633 114.146 79.3843 114.565 79.2202 115.106C79.1217 115.385 79.0561 115.746 79.0233 116.189C78.9904 116.271 79.0233 116.312 79.1217 116.312H84.1188C84.2009 116.312 84.2419 116.271 84.2419 116.189C84.2091 115.779 84.1598 115.467 84.0942 115.254C83.9465 114.663 83.6511 114.204 83.208 113.875C82.7813 113.547 82.2398 113.383 81.5833 113.383ZM90.0517 123.697C89.9697 123.697 89.8958 123.673 89.8302 123.623C89.7809 123.558 89.7563 123.484 89.7563 123.402V106.761C89.7563 106.679 89.7809 106.614 89.8302 106.564C89.8958 106.499 89.9697 106.466 90.0517 106.466H92.3164C92.3985 106.466 92.4641 106.499 92.5133 106.564C92.579 106.614 92.6118 106.679 92.6118 106.761V123.402C92.6118 123.484 92.579 123.558 92.5133 123.623C92.4641 123.673 92.3985 123.697 92.3164 123.697H90.0517ZM95.9413 123.697C95.8593 123.697 95.7854 123.673 95.7198 123.623C95.6706 123.558 95.6459 123.484 95.6459 123.402V106.761C95.6459 106.679 95.6706 106.614 95.7198 106.564C95.7854 106.499 95.8593 106.466 95.9413 106.466H98.206C98.2881 106.466 98.3537 106.499 98.403 106.564C98.4686 106.614 98.5014 106.679 98.5014 106.761V123.402C98.5014 123.484 98.4686 123.558 98.403 123.623C98.3537 123.673 98.2881 123.697 98.206 123.697H95.9413ZM103.16 109.395C102.652 109.395 102.233 109.231 101.905 108.903C101.577 108.575 101.412 108.156 101.412 107.647C101.412 107.139 101.577 106.72 101.905 106.392C102.233 106.064 102.652 105.9 103.16 105.9C103.669 105.9 104.087 106.064 104.416 106.392C104.744 106.72 104.908 107.139 104.908 107.647C104.908 108.156 104.744 108.575 104.416 108.903C104.087 109.231 103.669 109.395 103.16 109.395ZM101.979 123.697C101.897 123.697 101.823 123.673 101.757 123.623C101.708 123.558 101.683 123.484 101.683 123.402V111.389C101.683 111.307 101.708 111.241 101.757 111.192C101.823 111.127 101.897 111.094 101.979 111.094H104.243C104.325 111.094 104.391 111.127 104.44 111.192C104.506 111.241 104.539 111.307 104.539 111.389V123.402C104.539 123.484 104.506 123.558 104.44 123.623C104.391 123.673 104.325 123.697 104.243 123.697H101.979ZM113.841 110.921C115.17 110.921 116.229 111.315 117.016 112.103C117.82 112.891 118.222 113.966 118.222 115.328V123.402C118.222 123.484 118.19 123.558 118.124 123.623C118.075 123.673 118.009 123.697 117.927 123.697H115.662C115.58 123.697 115.507 123.673 115.441 123.623C115.392 123.558 115.367 123.484 115.367 123.402V115.919C115.367 115.164 115.154 114.556 114.727 114.097C114.3 113.621 113.734 113.383 113.028 113.383C112.323 113.383 111.748 113.613 111.305 114.072C110.879 114.532 110.665 115.139 110.665 115.894V123.402C110.665 123.484 110.632 123.558 110.567 123.623C110.518 123.673 110.452 123.697 110.37 123.697H108.105C108.023 123.697 107.949 123.673 107.884 123.623C107.834 123.558 107.81 123.484 107.81 123.402V111.414C107.81 111.332 107.834 111.266 107.884 111.217C107.949 111.151 108.023 111.118 108.105 111.118H110.37C110.452 111.118 110.518 111.151 110.567 111.217C110.632 111.266 110.665 111.332 110.665 111.414V112.201C110.665 112.251 110.682 112.284 110.715 112.3C110.747 112.316 110.772 112.3 110.788 112.251C111.461 111.365 112.479 110.921 113.841 110.921ZM128.905 111.414C128.905 111.332 128.929 111.266 128.978 111.217C129.044 111.151 129.118 111.118 129.2 111.118H131.465C131.547 111.118 131.612 111.151 131.662 111.217C131.727 111.266 131.76 111.332 131.76 111.414V122.86C131.76 124.912 131.169 126.372 129.988 127.242C128.823 128.128 127.288 128.571 125.384 128.571C124.876 128.571 124.375 128.547 123.883 128.497C123.702 128.481 123.612 128.374 123.612 128.177L123.686 126.159C123.686 125.978 123.801 125.888 124.031 125.888C124.506 125.937 124.933 125.962 125.311 125.962C126.541 125.962 127.444 125.716 128.018 125.223C128.609 124.748 128.905 123.935 128.905 122.786V122.59C128.905 122.54 128.888 122.516 128.855 122.516C128.823 122.499 128.79 122.507 128.757 122.54C128.084 123.262 127.132 123.623 125.901 123.623C124.835 123.623 123.858 123.353 122.972 122.811C122.086 122.27 121.47 121.441 121.126 120.325C120.913 119.554 120.806 118.561 120.806 117.346C120.806 115.984 120.937 114.942 121.2 114.22C121.528 113.219 122.094 112.423 122.898 111.832C123.702 111.225 124.646 110.921 125.729 110.921C127.026 110.921 128.035 111.299 128.757 112.054C128.79 112.103 128.823 112.119 128.855 112.103C128.888 112.087 128.905 112.054 128.905 112.005V111.414ZM128.732 119.513C128.798 119.266 128.839 119.004 128.855 118.725C128.888 118.429 128.905 117.962 128.905 117.322C128.905 116.698 128.888 116.255 128.855 115.992C128.839 115.713 128.79 115.443 128.708 115.18C128.576 114.638 128.306 114.204 127.895 113.875C127.501 113.547 126.993 113.383 126.369 113.383C125.778 113.383 125.278 113.547 124.868 113.875C124.457 114.204 124.162 114.638 123.981 115.18C123.784 115.64 123.686 116.362 123.686 117.346C123.686 118.364 123.768 119.078 123.932 119.488C124.096 120.013 124.392 120.448 124.818 120.793C125.261 121.121 125.787 121.285 126.394 121.285C127.034 121.285 127.551 121.121 127.945 120.793C128.338 120.464 128.601 120.038 128.732 119.513ZM153.669 123.328C153.718 123.394 153.743 123.459 153.743 123.525C153.743 123.64 153.661 123.697 153.497 123.697H150.961C150.814 123.697 150.691 123.64 150.592 123.525L149.484 122.294C149.435 122.245 149.378 122.245 149.312 122.294C147.802 123.361 146.145 123.894 144.34 123.894C142.83 123.894 141.583 123.541 140.598 122.836C139.63 122.114 139.146 121.063 139.146 119.685C139.146 118.569 139.449 117.625 140.056 116.854C140.68 116.083 141.517 115.369 142.567 114.712C142.666 114.647 142.674 114.589 142.592 114.54C141.722 113.49 141.148 112.677 140.869 112.103C140.59 111.529 140.45 110.93 140.45 110.306C140.45 109.551 140.647 108.87 141.041 108.263C141.435 107.639 141.985 107.155 142.69 106.811C143.412 106.449 144.233 106.269 145.152 106.269C146.104 106.269 146.949 106.449 147.687 106.811C148.426 107.155 149 107.647 149.41 108.288C149.837 108.928 150.051 109.666 150.051 110.503C150.051 111.504 149.755 112.382 149.164 113.137C148.574 113.892 147.778 114.581 146.777 115.205C146.694 115.254 146.686 115.311 146.752 115.377C147.507 116.263 148.426 117.305 149.509 118.503C149.558 118.569 149.616 118.569 149.681 118.503C150.075 118.077 150.584 117.42 151.207 116.534C151.306 116.353 151.437 116.321 151.601 116.435L153.275 117.396C153.472 117.51 153.505 117.642 153.374 117.789C152.684 118.84 152.003 119.742 151.331 120.497L151.306 120.546C151.306 120.612 151.339 120.678 151.404 120.743C151.995 121.433 152.57 122.089 153.128 122.713C153.242 122.86 153.341 122.983 153.423 123.082C153.521 123.18 153.603 123.262 153.669 123.328ZM145.226 108.878C144.651 108.878 144.184 109.034 143.823 109.346C143.478 109.658 143.306 110.068 143.306 110.577C143.306 110.856 143.404 111.168 143.601 111.512C143.798 111.857 144.216 112.415 144.856 113.186C144.906 113.252 144.963 113.26 145.029 113.211C145.734 112.768 146.268 112.341 146.629 111.931C147.006 111.504 147.195 111.045 147.195 110.552C147.195 110.043 147.015 109.641 146.653 109.346C146.292 109.034 145.817 108.878 145.226 108.878ZM144.364 121.482C145.382 121.482 146.457 121.113 147.589 120.374C147.655 120.308 147.655 120.251 147.589 120.202C147.507 120.12 147.425 120.029 147.343 119.931C147.261 119.833 147.179 119.734 147.097 119.636C146.883 119.389 146.53 118.987 146.038 118.429L145.472 117.789C145.209 117.51 144.889 117.149 144.512 116.706C144.479 116.657 144.422 116.649 144.34 116.682C143.601 117.158 143.035 117.625 142.641 118.085C142.247 118.544 142.05 119.061 142.05 119.636C142.05 120.194 142.255 120.645 142.666 120.989C143.092 121.318 143.658 121.482 144.364 121.482ZM167.545 123.894C166.314 123.894 165.231 123.656 164.295 123.18C163.36 122.688 162.638 121.999 162.129 121.113C161.62 120.226 161.366 119.209 161.366 118.06V112.103C161.366 110.938 161.62 109.92 162.129 109.051C162.638 108.164 163.36 107.483 164.295 107.007C165.231 106.515 166.314 106.269 167.545 106.269C168.759 106.269 169.826 106.507 170.745 106.983C171.68 107.459 172.402 108.107 172.911 108.928C173.42 109.748 173.674 110.675 173.674 111.709V111.906C173.674 111.988 173.641 112.062 173.576 112.128C173.526 112.177 173.461 112.201 173.379 112.201H171.139C171.056 112.201 170.983 112.177 170.917 112.128C170.868 112.062 170.843 111.988 170.843 111.906V111.783C170.843 110.897 170.54 110.167 169.932 109.592C169.342 109.018 168.546 108.731 167.545 108.731C166.544 108.731 165.739 109.034 165.132 109.641C164.525 110.232 164.221 111.02 164.221 112.005V118.159C164.221 119.143 164.541 119.939 165.181 120.546C165.821 121.137 166.65 121.433 167.668 121.433C168.652 121.433 169.424 121.178 169.982 120.669C170.556 120.144 170.843 119.43 170.843 118.528V117.002C170.843 116.92 170.802 116.879 170.72 116.879H167.692C167.61 116.879 167.536 116.854 167.471 116.805C167.421 116.739 167.397 116.665 167.397 116.583V114.762C167.397 114.68 167.421 114.614 167.471 114.565C167.536 114.499 167.61 114.466 167.692 114.466H173.379C173.461 114.466 173.526 114.499 173.576 114.565C173.641 114.614 173.674 114.68 173.674 114.762V117.912C173.674 119.8 173.116 121.268 172 122.319C170.901 123.369 169.415 123.894 167.545 123.894ZM182.469 110.971C182.994 110.971 183.454 111.077 183.847 111.291C183.979 111.356 184.028 111.479 183.995 111.66L183.577 113.875C183.56 114.072 183.445 114.13 183.232 114.048C182.986 113.966 182.699 113.925 182.37 113.925C182.157 113.925 181.993 113.933 181.878 113.949C181.189 113.982 180.615 114.228 180.155 114.688C179.696 115.131 179.466 115.713 179.466 116.435V123.402C179.466 123.484 179.433 123.558 179.367 123.623C179.318 123.673 179.252 123.697 179.17 123.697H176.906C176.824 123.697 176.75 123.673 176.684 123.623C176.635 123.558 176.61 123.484 176.61 123.402V111.414C176.61 111.332 176.635 111.266 176.684 111.217C176.75 111.151 176.824 111.118 176.906 111.118H179.17C179.252 111.118 179.318 111.151 179.367 111.217C179.433 111.266 179.466 111.332 179.466 111.414V112.521C179.466 112.587 179.474 112.628 179.49 112.645C179.523 112.645 179.556 112.62 179.589 112.571C180.278 111.504 181.238 110.971 182.469 110.971ZM190.967 123.894C189.67 123.894 188.554 123.566 187.619 122.91C186.7 122.253 186.052 121.342 185.674 120.177C185.395 119.291 185.256 118.356 185.256 117.371C185.256 116.321 185.387 115.385 185.65 114.565C186.027 113.416 186.684 112.521 187.619 111.881C188.554 111.241 189.678 110.921 190.991 110.921C192.239 110.921 193.313 111.241 194.216 111.881C195.135 112.521 195.783 113.408 196.161 114.54C196.456 115.328 196.604 116.263 196.604 117.346C196.604 118.38 196.464 119.316 196.185 120.153C195.808 121.318 195.16 122.237 194.241 122.91C193.322 123.566 192.23 123.894 190.967 123.894ZM190.967 121.433C191.574 121.433 192.091 121.26 192.518 120.916C192.961 120.571 193.281 120.087 193.478 119.463C193.642 118.922 193.724 118.232 193.724 117.396C193.724 116.509 193.642 115.82 193.478 115.328C193.297 114.704 192.985 114.228 192.542 113.9C192.099 113.555 191.558 113.383 190.918 113.383C190.31 113.383 189.785 113.555 189.342 113.9C188.899 114.228 188.579 114.704 188.382 115.328C188.218 115.902 188.136 116.591 188.136 117.396C188.136 118.2 188.218 118.889 188.382 119.463C188.563 120.087 188.874 120.571 189.317 120.916C189.777 121.26 190.327 121.433 190.967 121.433ZM201.657 123.697C201.476 123.697 201.362 123.615 201.312 123.451L197.792 111.438L197.768 111.34C197.768 111.176 197.858 111.094 198.038 111.094H200.377C200.557 111.094 200.672 111.176 200.721 111.34L202.765 119.562C202.781 119.611 202.806 119.636 202.838 119.636C202.871 119.636 202.896 119.611 202.912 119.562L205.054 111.34C205.103 111.176 205.218 111.094 205.399 111.094H207.442C207.622 111.094 207.737 111.176 207.786 111.34L209.977 119.562C209.994 119.611 210.018 119.636 210.051 119.636C210.084 119.636 210.108 119.611 210.125 119.562L212.316 111.34C212.365 111.176 212.48 111.094 212.66 111.094L214.974 111.143C215.073 111.143 215.138 111.176 215.171 111.241C215.22 111.291 215.237 111.365 215.22 111.463L211.676 123.451C211.626 123.615 211.52 123.697 211.356 123.697H208.993C208.812 123.697 208.697 123.615 208.648 123.451L206.482 115.943C206.465 115.894 206.441 115.869 206.408 115.869C206.375 115.869 206.35 115.894 206.334 115.943L204.34 123.451C204.291 123.615 204.176 123.697 203.995 123.697H201.657ZM219.03 109.395C218.521 109.395 218.102 109.231 217.774 108.903C217.446 108.575 217.282 108.156 217.282 107.647C217.282 107.139 217.446 106.72 217.774 106.392C218.102 106.064 218.521 105.9 219.03 105.9C219.538 105.9 219.957 106.064 220.285 106.392C220.613 106.72 220.777 107.139 220.777 107.647C220.777 108.156 220.613 108.575 220.285 108.903C219.957 109.231 219.538 109.395 219.03 109.395ZM217.848 123.697C217.766 123.697 217.692 123.673 217.627 123.623C217.577 123.558 217.553 123.484 217.553 123.402V111.389C217.553 111.307 217.577 111.241 217.627 111.192C217.692 111.127 217.766 111.094 217.848 111.094H220.113C220.195 111.094 220.26 111.127 220.31 111.192C220.375 111.241 220.408 111.307 220.408 111.389V123.402C220.408 123.484 220.375 123.558 220.31 123.623C220.26 123.673 220.195 123.697 220.113 123.697H217.848ZM229.71 110.921C231.039 110.921 232.098 111.315 232.886 112.103C233.69 112.891 234.092 113.966 234.092 115.328V123.402C234.092 123.484 234.059 123.558 233.993 123.623C233.944 123.673 233.879 123.697 233.796 123.697H231.532C231.45 123.697 231.376 123.673 231.31 123.623C231.261 123.558 231.236 123.484 231.236 123.402V115.919C231.236 115.164 231.023 114.556 230.596 114.097C230.17 113.621 229.604 113.383 228.898 113.383C228.192 113.383 227.618 113.613 227.175 114.072C226.748 114.532 226.535 115.139 226.535 115.894V123.402C226.535 123.484 226.502 123.558 226.436 123.623C226.387 123.673 226.321 123.697 226.239 123.697H223.975C223.893 123.697 223.819 123.673 223.753 123.623C223.704 123.558 223.679 123.484 223.679 123.402V111.414C223.679 111.332 223.704 111.266 223.753 111.217C223.819 111.151 223.893 111.118 223.975 111.118H226.239C226.321 111.118 226.387 111.151 226.436 111.217C226.502 111.266 226.535 111.332 226.535 111.414V112.201C226.535 112.251 226.551 112.284 226.584 112.3C226.617 112.316 226.641 112.3 226.658 112.251C227.331 111.365 228.348 110.921 229.71 110.921ZM244.774 111.414C244.774 111.332 244.799 111.266 244.848 111.217C244.913 111.151 244.987 111.118 245.069 111.118H247.334C247.416 111.118 247.482 111.151 247.531 111.217C247.597 111.266 247.629 111.332 247.629 111.414V122.86C247.629 124.912 247.039 126.372 245.857 127.242C244.692 128.128 243.157 128.571 241.254 128.571C240.745 128.571 240.245 128.547 239.752 128.497C239.572 128.481 239.481 128.374 239.481 128.177L239.555 126.159C239.555 125.978 239.67 125.888 239.9 125.888C240.376 125.937 240.803 125.962 241.18 125.962C242.411 125.962 243.313 125.716 243.888 125.223C244.479 124.748 244.774 123.935 244.774 122.786V122.59C244.774 122.54 244.758 122.516 244.725 122.516C244.692 122.499 244.659 122.507 244.626 122.54C243.953 123.262 243.002 123.623 241.771 123.623C240.704 123.623 239.728 123.353 238.841 122.811C237.955 122.27 237.34 121.441 236.995 120.325C236.782 119.554 236.675 118.561 236.675 117.346C236.675 115.984 236.807 114.942 237.069 114.22C237.397 113.219 237.963 112.423 238.768 111.832C239.572 111.225 240.515 110.921 241.598 110.921C242.895 110.921 243.904 111.299 244.626 112.054C244.659 112.103 244.692 112.119 244.725 112.103C244.758 112.087 244.774 112.054 244.774 112.005V111.414ZM244.602 119.513C244.667 119.266 244.708 119.004 244.725 118.725C244.758 118.429 244.774 117.962 244.774 117.322C244.774 116.698 244.758 116.255 244.725 115.992C244.708 115.713 244.659 115.443 244.577 115.18C244.446 114.638 244.175 114.204 243.765 113.875C243.371 113.547 242.862 113.383 242.238 113.383C241.648 113.383 241.147 113.547 240.737 113.875C240.327 114.204 240.031 114.638 239.851 115.18C239.654 115.64 239.555 116.362 239.555 117.346C239.555 118.364 239.637 119.078 239.801 119.488C239.966 120.013 240.261 120.448 240.688 120.793C241.131 121.121 241.656 121.285 242.263 121.285C242.903 121.285 243.42 121.121 243.814 120.793C244.208 120.464 244.47 120.038 244.602 119.513Z" fill="white"/>
</svg>
