<svg width="253" height="132" viewBox="0 0 253 132" fill="none" xmlns="http://www.w3.org/2000/svg">
<path d="M95.6616 2.57137C95.6616 1.43844 96.58 0.52002 97.713 0.52002H114.606C115.739 0.52002 116.658 1.43844 116.658 2.57137V16.5688C116.658 17.7018 115.739 18.6202 114.606 18.6202H97.713C96.58 18.6202 95.6616 17.7018 95.6616 16.5688V2.57137Z" fill="#10B981"/>
<path d="M102.728 47.7556C102.406 47.6763 102.07 47.6763 101.748 47.7556L97.2228 48.8689C96.306 49.0945 95.6616 49.9167 95.6616 50.8609V60.0094C95.6616 61.1424 96.58 62.0608 97.713 62.0608H114.606C115.739 62.0608 116.658 61.1424 116.658 60.0094V49.4514C116.658 47.8466 114.898 46.8633 113.531 47.7044L111.117 49.1903C110.649 49.4783 110.085 49.5665 109.552 49.4352L102.728 47.7556Z" fill="#10B981"/>
<path d="M95.6616 42.9072C95.6616 44.2387 96.9103 45.2173 98.2031 44.8992L101.748 44.027C102.07 43.9478 102.406 43.9478 102.728 44.027L108.945 45.557C109.478 45.6883 110.042 45.6001 110.51 45.3122L115.682 42.13C116.288 41.7566 116.658 41.0953 116.658 40.3829V24.7745C116.658 23.6416 115.739 22.7231 114.606 22.7231H97.713C96.58 22.7231 95.6616 23.6416 95.6616 24.7745V42.9072ZM-nan -nanL106.16 29.4805C108.222 29.4805 109.9 31.159 109.9 33.2212C109.9 35.2835 108.222 36.9619 106.16 36.9619C104.098 36.9619 102.419 35.2835 102.419 33.2212C102.419 31.159 104.098 29.4805 106.16 29.4805L-nan -nanZ" fill="#10B981"/>
<path d="M120.761 43.1163C120.761 41.9834 121.679 41.0649 122.812 41.0649H155.151C156.284 41.0649 157.202 41.9834 157.202 43.1163V60.0098C157.202 61.1427 156.284 62.0611 155.151 62.0611H122.812C121.679 62.0611 120.761 61.1427 120.761 60.0098V43.1163Z" fill="#10B981"/>
<path d="M138.982 20.7927C140.648 20.7927 141.998 19.442 141.998 17.776C141.998 16.1099 140.648 14.7593 138.982 14.7593C137.315 14.7593 135.965 16.1099 135.965 17.776C135.965 19.442 137.315 20.7927 138.982 20.7927Z" fill="#10B981"/>
<path d="M122.812 0.52002C121.679 0.52002 120.761 1.43844 120.761 2.57137V34.9103C120.761 36.0433 121.679 36.9617 122.812 36.9617H127.397C128.53 36.9617 129.449 36.0433 129.449 34.9103V29.6058C129.449 27.2167 130.404 25.047 131.953 23.4578C132.836 22.5522 133.083 21.0814 132.679 19.8829C131.317 15.8392 134.228 11.1388 138.982 11.1388C143.738 11.1388 146.644 15.8407 145.284 19.8827C144.88 21.0813 145.127 22.5522 146.01 23.4578C147.559 25.047 148.514 27.2167 148.514 29.6058V34.9103C148.514 36.0433 149.433 36.9617 150.566 36.9617H155.151C156.284 36.9617 157.202 36.0433 157.202 34.9103V2.57137C157.202 1.43844 156.284 0.52002 155.151 0.52002H122.812Z" fill="#10B981"/>
<path d="M133.069 29.6057V36.9616H144.894V29.6057C144.894 26.7422 142.564 24.4121 139.701 24.4121H138.262C135.399 24.4121 133.069 26.7422 133.069 29.6057Z" fill="#10B981"/>
<path d="M14.2312 106.996C14.2312 107.078 14.1984 107.152 14.1328 107.217C14.0835 107.267 14.0179 107.291 13.9358 107.291H5.56632C5.48427 107.291 5.44324 107.332 5.44324 107.414V112.018C5.44324 112.1 5.48427 112.141 5.56632 112.141H11.2034C11.2855 112.141 11.3511 112.174 11.4004 112.239C11.466 112.288 11.4988 112.354 11.4988 112.436V114.307C11.4988 114.389 11.466 114.463 11.4004 114.528C11.3511 114.578 11.2855 114.602 11.2034 114.602H5.56632C5.48427 114.602 5.44324 114.643 5.44324 114.725V121.766C5.44324 121.848 5.41042 121.922 5.34477 121.987C5.29554 122.036 5.2299 122.061 5.14784 122.061H2.88315C2.8011 122.061 2.72725 122.036 2.66161 121.987C2.61237 121.922 2.58776 121.848 2.58776 121.766V105.125C2.58776 105.043 2.61237 104.977 2.66161 104.928C2.72725 104.862 2.8011 104.83 2.88315 104.83H13.9358C14.0179 104.83 14.0835 104.862 14.1328 104.928C14.1984 104.977 14.2312 105.043 14.2312 105.125V106.996ZM17.8123 107.759C17.3036 107.759 16.8851 107.595 16.5569 107.267C16.2287 106.938 16.0646 106.52 16.0646 106.011C16.0646 105.503 16.2287 105.084 16.5569 104.756C16.8851 104.428 17.3036 104.263 17.8123 104.263C18.3211 104.263 18.7395 104.428 19.0677 104.756C19.396 105.084 19.5601 105.503 19.5601 106.011C19.5601 106.52 19.396 106.938 19.0677 107.267C18.7395 107.595 18.3211 107.759 17.8123 107.759ZM16.6307 122.061C16.5487 122.061 16.4748 122.036 16.4092 121.987C16.36 121.922 16.3353 121.848 16.3353 121.766V109.753C16.3353 109.671 16.36 109.605 16.4092 109.556C16.4748 109.49 16.5487 109.458 16.6307 109.458H18.8954C18.9775 109.458 19.0431 109.49 19.0924 109.556C19.158 109.605 19.1908 109.671 19.1908 109.753V121.766C19.1908 121.848 19.158 121.922 19.0924 121.987C19.0431 122.036 18.9775 122.061 18.8954 122.061H16.6307ZM22.7573 122.061C22.6752 122.061 22.6014 122.036 22.5358 121.987C22.4865 121.922 22.4619 121.848 22.4619 121.766V105.125C22.4619 105.043 22.4865 104.977 22.5358 104.928C22.6014 104.862 22.6752 104.83 22.7573 104.83H25.022C25.104 104.83 25.1697 104.862 25.2189 104.928C25.2846 104.977 25.3174 105.043 25.3174 105.125V121.766C25.3174 121.848 25.2846 121.922 25.2189 121.987C25.1697 122.036 25.104 122.061 25.022 122.061H22.7573ZM28.6469 122.061C28.5649 122.061 28.491 122.036 28.4254 121.987C28.3761 121.922 28.3515 121.848 28.3515 121.766V105.125C28.3515 105.043 28.3761 104.977 28.4254 104.928C28.491 104.862 28.5649 104.83 28.6469 104.83H30.9116C30.9937 104.83 31.0593 104.862 31.1085 104.928C31.1742 104.977 31.207 105.043 31.207 105.125V121.766C31.207 121.848 31.1742 121.922 31.1085 121.987C31.0593 122.036 30.9937 122.061 30.9116 122.061H28.6469ZM44.5109 122.258C43.2145 122.258 42.0985 121.93 41.1631 121.273C40.2441 120.617 39.5959 119.706 39.2184 118.541C38.9395 117.655 38.8 116.719 38.8 115.735C38.8 114.684 38.9313 113.749 39.1938 112.928C39.5713 111.78 40.2277 110.885 41.1631 110.245C42.0985 109.605 43.2227 109.285 44.5356 109.285C45.7828 109.285 46.8577 109.605 47.7603 110.245C48.6793 110.885 49.3275 111.771 49.705 112.904C50.0004 113.692 50.1481 114.627 50.1481 115.71C50.1481 116.744 50.0086 117.679 49.7296 118.516C49.3521 119.681 48.7039 120.6 47.7849 121.273C46.8659 121.93 45.7746 122.258 44.5109 122.258ZM44.5109 119.796C45.1181 119.796 45.6351 119.624 46.0618 119.279C46.5048 118.935 46.8249 118.451 47.0218 117.827C47.1859 117.285 47.268 116.596 47.268 115.759C47.268 114.873 47.1859 114.184 47.0218 113.692C46.8413 113.068 46.5295 112.592 46.0864 112.264C45.6433 111.919 45.1017 111.747 44.4617 111.747C43.8545 111.747 43.3294 111.919 42.8863 112.264C42.4432 112.592 42.1232 113.068 41.9262 113.692C41.7621 114.266 41.6801 114.955 41.6801 115.759C41.6801 116.563 41.7621 117.253 41.9262 117.827C42.1067 118.451 42.4186 118.935 42.8616 119.279C43.3212 119.624 43.8709 119.796 44.5109 119.796ZM60.2817 109.778C60.2817 109.695 60.3063 109.63 60.3555 109.581C60.4212 109.515 60.495 109.482 60.5771 109.482H62.8171C62.8992 109.482 62.9648 109.515 63.0141 109.581C63.0797 109.63 63.1125 109.695 63.1125 109.778V121.766C63.1125 121.848 63.0797 121.922 63.0141 121.987C62.9648 122.036 62.8992 122.061 62.8171 122.061H60.5771C60.495 122.061 60.4212 122.036 60.3555 121.987C60.3063 121.922 60.2817 121.848 60.2817 121.766V120.978C60.2817 120.929 60.2653 120.896 60.2324 120.879C60.1996 120.863 60.1668 120.879 60.134 120.929C59.4611 121.798 58.4519 122.233 57.1062 122.233C55.859 122.233 54.8087 121.872 53.9553 121.15C53.1183 120.428 52.6999 119.402 52.6999 118.073V109.778C52.6999 109.695 52.7245 109.63 52.7737 109.581C52.8394 109.515 52.9132 109.482 52.9953 109.482H55.26C55.342 109.482 55.4077 109.515 55.4569 109.581C55.5225 109.63 55.5554 109.695 55.5554 109.778V117.261C55.5554 118.032 55.7523 118.648 56.1461 119.107C56.5564 119.567 57.1226 119.796 57.8447 119.796C58.5832 119.796 59.1739 119.567 59.617 119.107C60.0601 118.648 60.2817 118.032 60.2817 117.261V109.778ZM72.8363 111.501C72.8363 111.583 72.8035 111.657 72.7379 111.722C72.6886 111.771 72.623 111.796 72.5409 111.796H70.0301C69.948 111.796 69.907 111.837 69.907 111.919V117.852C69.907 118.475 70.0383 118.927 70.3009 119.206C70.5798 119.485 71.0147 119.624 71.6055 119.624H72.344C72.4261 119.624 72.4917 119.657 72.5409 119.722C72.6066 119.772 72.6394 119.837 72.6394 119.919V121.766C72.6394 121.946 72.5409 122.053 72.344 122.086L71.064 122.11C69.7675 122.11 68.7993 121.889 68.1593 121.446C67.5192 121.003 67.191 120.166 67.1746 118.935V111.919C67.1746 111.837 67.1336 111.796 67.0515 111.796H65.6484C65.5663 111.796 65.4925 111.771 65.4268 111.722C65.3776 111.657 65.353 111.583 65.353 111.501V109.778C65.353 109.695 65.3776 109.63 65.4268 109.581C65.4925 109.515 65.5663 109.482 65.6484 109.482H67.0515C67.1336 109.482 67.1746 109.441 67.1746 109.359V106.479C67.1746 106.397 67.1992 106.331 67.2485 106.282C67.3141 106.216 67.3879 106.184 67.47 106.184H69.6116C69.6937 106.184 69.7593 106.216 69.8085 106.282C69.8742 106.331 69.907 106.397 69.907 106.479V109.359C69.907 109.441 69.948 109.482 70.0301 109.482H72.5409C72.623 109.482 72.6886 109.515 72.7379 109.581C72.8035 109.63 72.8363 109.695 72.8363 109.778V111.501ZM86.9714 111.501C86.9714 111.583 86.9386 111.657 86.873 111.722C86.8237 111.771 86.7581 111.796 86.676 111.796H84.1652C84.0831 111.796 84.0421 111.837 84.0421 111.919V117.852C84.0421 118.475 84.1734 118.927 84.436 119.206C84.7149 119.485 85.1498 119.624 85.7406 119.624H86.4791C86.5612 119.624 86.6268 119.657 86.676 119.722C86.7417 119.772 86.7745 119.837 86.7745 119.919V121.766C86.7745 121.946 86.676 122.053 86.4791 122.086L85.1991 122.11C83.9026 122.11 82.9344 121.889 82.2944 121.446C81.6543 121.003 81.3261 120.166 81.3097 118.935V111.919C81.3097 111.837 81.2687 111.796 81.1866 111.796H79.7835C79.7014 111.796 79.6276 111.771 79.562 111.722C79.5127 111.657 79.4881 111.583 79.4881 111.501V109.778C79.4881 109.695 79.5127 109.63 79.562 109.581C79.6276 109.515 79.7014 109.482 79.7835 109.482H81.1866C81.2687 109.482 81.3097 109.441 81.3097 109.359V106.479C81.3097 106.397 81.3343 106.331 81.3836 106.282C81.4492 106.216 81.523 106.184 81.6051 106.184H83.7467C83.8288 106.184 83.8944 106.216 83.9436 106.282C84.0093 106.331 84.0421 106.397 84.0421 106.479V109.359C84.0421 109.441 84.0831 109.482 84.1652 109.482H86.676C86.7581 109.482 86.8237 109.515 86.873 109.581C86.9386 109.63 86.9714 109.695 86.9714 109.778V111.501ZM95.5385 109.285C96.8677 109.285 97.9262 109.679 98.714 110.467C99.5181 111.255 99.9202 112.329 99.9202 113.692V121.766C99.9202 121.848 99.8873 121.922 99.8217 121.987C99.7725 122.036 99.7068 122.061 99.6248 122.061H97.3601C97.278 122.061 97.2042 122.036 97.1385 121.987C97.0893 121.922 97.0647 121.848 97.0647 121.766V114.282C97.0647 113.527 96.8513 112.92 96.4246 112.461C95.998 111.985 95.4318 111.747 94.7261 111.747C94.0205 111.747 93.4461 111.977 93.003 112.436C92.5763 112.896 92.363 113.503 92.363 114.258V121.766C92.363 121.848 92.3301 121.922 92.2645 121.987C92.2153 122.036 92.1496 122.061 92.0676 122.061H89.8029C89.7208 122.061 89.647 122.036 89.5813 121.987C89.5321 121.922 89.5075 121.848 89.5075 121.766V105.125C89.5075 105.043 89.5321 104.977 89.5813 104.928C89.647 104.862 89.7208 104.83 89.8029 104.83H92.0676C92.1496 104.83 92.2153 104.862 92.2645 104.928C92.3301 104.977 92.363 105.043 92.363 105.125V110.565C92.363 110.614 92.3794 110.647 92.4122 110.664C92.445 110.68 92.4696 110.664 92.486 110.614C93.1589 109.728 94.1764 109.285 95.5385 109.285ZM113.411 114.356C113.476 114.766 113.509 115.226 113.509 115.735L113.485 116.498C113.485 116.695 113.386 116.793 113.189 116.793H105.484C105.402 116.793 105.361 116.834 105.361 116.916C105.411 117.458 105.484 117.827 105.583 118.024C105.977 119.206 106.937 119.805 108.463 119.821C109.579 119.821 110.465 119.361 111.122 118.442C111.187 118.344 111.269 118.295 111.368 118.295C111.433 118.295 111.491 118.319 111.54 118.369L113.066 119.624C113.214 119.739 113.238 119.87 113.14 120.018C112.631 120.74 111.95 121.298 111.097 121.692C110.26 122.086 109.325 122.283 108.291 122.283C107.011 122.283 105.919 121.995 105.017 121.421C104.13 120.847 103.482 120.043 103.072 119.009C102.695 118.122 102.506 116.892 102.506 115.316C102.506 114.364 102.604 113.593 102.801 113.002C103.129 111.854 103.745 110.951 104.647 110.294C105.566 109.622 106.666 109.285 107.946 109.285C111.179 109.285 113.001 110.976 113.411 114.356ZM107.946 111.747C107.339 111.747 106.83 111.903 106.42 112.215C106.026 112.51 105.747 112.928 105.583 113.47C105.484 113.749 105.419 114.11 105.386 114.553C105.353 114.635 105.386 114.676 105.484 114.676H110.481C110.564 114.676 110.605 114.635 110.605 114.553C110.572 114.143 110.523 113.831 110.457 113.618C110.309 113.027 110.014 112.567 109.571 112.239C109.144 111.911 108.602 111.747 107.946 111.747ZM131.706 112.731C132.001 113.568 132.149 114.594 132.149 115.809C132.149 116.974 132.009 117.975 131.73 118.812C131.369 119.895 130.787 120.74 129.983 121.347C129.195 121.954 128.194 122.258 126.98 122.258C125.814 122.258 124.879 121.839 124.173 121.003C124.14 120.97 124.108 120.962 124.075 120.978C124.042 120.994 124.026 121.027 124.026 121.076V126.418C124.026 126.5 123.993 126.566 123.927 126.615C123.878 126.681 123.812 126.714 123.73 126.714H121.466C121.383 126.714 121.31 126.681 121.244 126.615C121.195 126.566 121.17 126.5 121.17 126.418V109.778C121.17 109.695 121.195 109.63 121.244 109.581C121.31 109.515 121.383 109.482 121.466 109.482H123.73C123.812 109.482 123.878 109.515 123.927 109.581C123.993 109.63 124.026 109.695 124.026 109.778V110.516C124.026 110.565 124.042 110.598 124.075 110.614C124.108 110.631 124.14 110.614 124.173 110.565C124.895 109.712 125.839 109.285 127.004 109.285C128.169 109.285 129.154 109.589 129.958 110.196C130.762 110.803 131.345 111.648 131.706 112.731ZM128.506 118.762C128.998 118.008 129.244 117.007 129.244 115.759C129.244 114.561 129.047 113.618 128.653 112.928C128.194 112.124 127.496 111.722 126.561 111.722C125.708 111.722 125.068 112.116 124.641 112.904C124.264 113.544 124.075 114.496 124.075 115.759C124.075 117.056 124.28 118.04 124.69 118.713C125.117 119.435 125.732 119.796 126.536 119.796C127.406 119.796 128.063 119.452 128.506 118.762ZM140.776 109.334C141.302 109.334 141.761 109.441 142.155 109.654C142.286 109.72 142.335 109.843 142.303 110.024L141.884 112.239C141.868 112.436 141.753 112.494 141.539 112.411C141.293 112.329 141.006 112.288 140.678 112.288C140.465 112.288 140.3 112.297 140.186 112.313C139.496 112.346 138.922 112.592 138.462 113.051C138.003 113.495 137.773 114.077 137.773 114.799V121.766C137.773 121.848 137.74 121.922 137.675 121.987C137.625 122.036 137.56 122.061 137.478 122.061H135.213C135.131 122.061 135.057 122.036 134.992 121.987C134.942 121.922 134.918 121.848 134.918 121.766V109.778C134.918 109.695 134.942 109.63 134.992 109.581C135.057 109.515 135.131 109.482 135.213 109.482H137.478C137.56 109.482 137.625 109.515 137.675 109.581C137.74 109.63 137.773 109.695 137.773 109.778V110.885C137.773 110.951 137.781 110.992 137.798 111.008C137.831 111.008 137.863 110.984 137.896 110.934C138.586 109.868 139.546 109.334 140.776 109.334ZM149.274 122.258C147.978 122.258 146.862 121.93 145.926 121.273C145.007 120.617 144.359 119.706 143.982 118.541C143.703 117.655 143.563 116.719 143.563 115.735C143.563 114.684 143.694 113.749 143.957 112.928C144.335 111.78 144.991 110.885 145.926 110.245C146.862 109.605 147.986 109.285 149.299 109.285C150.546 109.285 151.621 109.605 152.524 110.245C153.443 110.885 154.091 111.771 154.468 112.904C154.764 113.692 154.911 114.627 154.911 115.71C154.911 116.744 154.772 117.679 154.493 118.516C154.115 119.681 153.467 120.6 152.548 121.273C151.629 121.93 150.538 122.258 149.274 122.258ZM149.274 119.796C149.881 119.796 150.398 119.624 150.825 119.279C151.268 118.935 151.588 118.451 151.785 117.827C151.949 117.285 152.031 116.596 152.031 115.759C152.031 114.873 151.949 114.184 151.785 113.692C151.605 113.068 151.293 112.592 150.85 112.264C150.407 111.919 149.865 111.747 149.225 111.747C148.618 111.747 148.093 111.919 147.649 112.264C147.206 112.592 146.886 113.068 146.689 113.692C146.525 114.266 146.443 114.955 146.443 115.759C146.443 116.563 146.525 117.253 146.689 117.827C146.87 118.451 147.182 118.935 147.625 119.279C148.084 119.624 148.634 119.796 149.274 119.796ZM165.414 105.125C165.414 105.043 165.439 104.977 165.488 104.928C165.554 104.862 165.627 104.83 165.71 104.83H167.974C168.056 104.83 168.122 104.862 168.171 104.928C168.237 104.977 168.27 105.043 168.27 105.125V121.766C168.27 121.848 168.237 121.922 168.171 121.987C168.122 122.036 168.056 122.061 167.974 122.061H165.71C165.627 122.061 165.554 122.036 165.488 121.987C165.439 121.922 165.414 121.848 165.414 121.766V121.027C165.414 120.978 165.398 120.945 165.365 120.929C165.332 120.912 165.299 120.929 165.266 120.978C164.544 121.831 163.601 122.258 162.436 122.258C161.27 122.258 160.286 121.954 159.482 121.347C158.678 120.74 158.095 119.895 157.734 118.812C157.438 117.893 157.291 116.867 157.291 115.735C157.291 114.569 157.43 113.568 157.709 112.731C158.07 111.648 158.653 110.803 159.457 110.196C160.261 109.589 161.27 109.285 162.485 109.285C163.617 109.285 164.544 109.695 165.266 110.516C165.299 110.549 165.332 110.565 165.365 110.565C165.398 110.549 165.414 110.516 165.414 110.467V105.125ZM164.823 118.615C165.201 117.942 165.39 116.99 165.39 115.759C165.39 114.479 165.184 113.503 164.774 112.83C164.331 112.108 163.707 111.747 162.903 111.747C162.066 111.747 161.41 112.091 160.934 112.781C160.442 113.503 160.196 114.504 160.196 115.784C160.196 116.933 160.392 117.876 160.786 118.615C161.246 119.402 161.943 119.796 162.879 119.796C163.716 119.796 164.364 119.402 164.823 118.615ZM178.795 109.778C178.795 109.695 178.82 109.63 178.869 109.581C178.935 109.515 179.009 109.482 179.091 109.482H181.331C181.413 109.482 181.479 109.515 181.528 109.581C181.593 109.63 181.626 109.695 181.626 109.778V121.766C181.626 121.848 181.593 121.922 181.528 121.987C181.479 122.036 181.413 122.061 181.331 122.061H179.091C179.009 122.061 178.935 122.036 178.869 121.987C178.82 121.922 178.795 121.848 178.795 121.766V120.978C178.795 120.929 178.779 120.896 178.746 120.879C178.713 120.863 178.681 120.879 178.648 120.929C177.975 121.798 176.966 122.233 175.62 122.233C174.373 122.233 173.322 121.872 172.469 121.15C171.632 120.428 171.214 119.402 171.214 118.073V109.778C171.214 109.695 171.238 109.63 171.287 109.581C171.353 109.515 171.427 109.482 171.509 109.482H173.774C173.856 109.482 173.921 109.515 173.971 109.581C174.036 109.63 174.069 109.695 174.069 109.778V117.261C174.069 118.032 174.266 118.648 174.66 119.107C175.07 119.567 175.636 119.796 176.358 119.796C177.097 119.796 177.688 119.567 178.131 119.107C178.574 118.648 178.795 118.032 178.795 117.261V109.778ZM189.922 122.258C188.659 122.258 187.567 121.938 186.648 121.298C185.729 120.641 185.089 119.764 184.728 118.664C184.466 117.926 184.334 116.941 184.334 115.71C184.334 114.528 184.466 113.56 184.728 112.805C185.073 111.722 185.705 110.869 186.624 110.245C187.559 109.605 188.659 109.285 189.922 109.285C191.202 109.285 192.318 109.605 193.27 110.245C194.222 110.885 194.854 111.689 195.166 112.658C195.248 112.92 195.305 113.183 195.338 113.445V113.495C195.338 113.659 195.248 113.757 195.067 113.79L192.852 114.11H192.802C192.655 114.11 192.556 114.028 192.507 113.864C192.507 113.782 192.499 113.716 192.482 113.667C192.45 113.536 192.417 113.421 192.384 113.322C192.236 112.863 191.941 112.485 191.498 112.19C191.055 111.895 190.529 111.747 189.922 111.747C189.299 111.747 188.765 111.911 188.322 112.239C187.896 112.551 187.608 112.986 187.461 113.544C187.297 114.069 187.215 114.799 187.215 115.735C187.215 116.637 187.288 117.368 187.436 117.926C187.6 118.5 187.896 118.959 188.322 119.304C188.749 119.632 189.282 119.796 189.922 119.796C190.546 119.796 191.079 119.64 191.522 119.329C191.982 119 192.277 118.566 192.409 118.024C192.425 117.991 192.433 117.95 192.433 117.901C192.45 117.884 192.458 117.86 192.458 117.827C192.507 117.63 192.622 117.548 192.802 117.581L195.018 117.926C195.1 117.942 195.166 117.983 195.215 118.049C195.28 118.098 195.305 118.172 195.289 118.27C195.239 118.533 195.198 118.721 195.166 118.836C194.854 119.887 194.222 120.724 193.27 121.347C192.318 121.954 191.202 122.258 189.922 122.258ZM204.427 111.501C204.427 111.583 204.395 111.657 204.329 111.722C204.28 111.771 204.214 111.796 204.132 111.796H201.621C201.539 111.796 201.498 111.837 201.498 111.919V117.852C201.498 118.475 201.629 118.927 201.892 119.206C202.171 119.485 202.606 119.624 203.197 119.624H203.935C204.017 119.624 204.083 119.657 204.132 119.722C204.198 119.772 204.23 119.837 204.23 119.919V121.766C204.23 121.946 204.132 122.053 203.935 122.086L202.655 122.11C201.359 122.11 200.39 121.889 199.75 121.446C199.11 121.003 198.782 120.166 198.766 118.935V111.919C198.766 111.837 198.725 111.796 198.643 111.796H197.239C197.157 111.796 197.084 111.771 197.018 111.722C196.969 111.657 196.944 111.583 196.944 111.501V109.778C196.944 109.695 196.969 109.63 197.018 109.581C197.084 109.515 197.157 109.482 197.239 109.482H198.643C198.725 109.482 198.766 109.441 198.766 109.359V106.479C198.766 106.397 198.79 106.331 198.84 106.282C198.905 106.216 198.979 106.184 199.061 106.184H201.203C201.285 106.184 201.35 106.216 201.4 106.282C201.465 106.331 201.498 106.397 201.498 106.479V109.359C201.498 109.441 201.539 109.482 201.621 109.482H204.132C204.214 109.482 204.28 109.515 204.329 109.581C204.395 109.63 204.427 109.695 204.427 109.778V111.501ZM213.516 107.759C213.007 107.759 212.589 107.595 212.261 107.267C211.933 106.938 211.768 106.52 211.768 106.011C211.768 105.503 211.933 105.084 212.261 104.756C212.589 104.428 213.007 104.263 213.516 104.263C214.025 104.263 214.443 104.428 214.772 104.756C215.1 105.084 215.264 105.503 215.264 106.011C215.264 106.52 215.1 106.938 214.772 107.267C214.443 107.595 214.025 107.759 213.516 107.759ZM212.335 122.061C212.253 122.061 212.179 122.036 212.113 121.987C212.064 121.922 212.039 121.848 212.039 121.766V109.753C212.039 109.671 212.064 109.605 212.113 109.556C212.179 109.49 212.253 109.458 212.335 109.458H214.599C214.681 109.458 214.747 109.49 214.796 109.556C214.862 109.605 214.895 109.671 214.895 109.753V121.766C214.895 121.848 214.862 121.922 214.796 121.987C214.747 122.036 214.681 122.061 214.599 122.061H212.335ZM224.197 109.285C225.526 109.285 226.585 109.679 227.372 110.467C228.176 111.255 228.578 112.329 228.578 113.692V121.766C228.578 121.848 228.546 121.922 228.48 121.987C228.431 122.036 228.365 122.061 228.283 122.061H226.018C225.936 122.061 225.862 122.036 225.797 121.987C225.748 121.922 225.723 121.848 225.723 121.766V114.282C225.723 113.527 225.51 112.92 225.083 112.461C224.656 111.985 224.09 111.747 223.384 111.747C222.679 111.747 222.104 111.977 221.661 112.436C221.235 112.896 221.021 113.503 221.021 114.258V121.766C221.021 121.848 220.988 121.922 220.923 121.987C220.874 122.036 220.808 122.061 220.726 122.061H218.461C218.379 122.061 218.305 122.036 218.24 121.987C218.19 121.922 218.166 121.848 218.166 121.766V109.778C218.166 109.695 218.19 109.63 218.24 109.581C218.305 109.515 218.379 109.482 218.461 109.482H220.726C220.808 109.482 220.874 109.515 220.923 109.581C220.988 109.63 221.021 109.695 221.021 109.778V110.565C221.021 110.614 221.038 110.647 221.07 110.664C221.103 110.68 221.128 110.664 221.144 110.614C221.817 109.728 222.835 109.285 224.197 109.285ZM238.104 109.458C238.186 109.458 238.251 109.49 238.301 109.556C238.366 109.605 238.399 109.671 238.399 109.753V111.698C238.399 111.78 238.366 111.854 238.301 111.919C238.251 111.968 238.186 111.993 238.104 111.993H235.667C235.585 111.993 235.543 112.034 235.543 112.116V121.766C235.543 121.848 235.511 121.922 235.445 121.987C235.396 122.036 235.33 122.061 235.248 122.061H232.983C232.901 122.061 232.827 122.036 232.762 121.987C232.713 121.922 232.688 121.848 232.688 121.766V112.116C232.688 112.034 232.647 111.993 232.565 111.993H231.039C230.957 111.993 230.883 111.968 230.817 111.919C230.768 111.854 230.743 111.78 230.743 111.698V109.753C230.743 109.671 230.768 109.605 230.817 109.556C230.883 109.49 230.957 109.458 231.039 109.458H232.565C232.647 109.458 232.688 109.416 232.688 109.334V108.891C232.688 107.825 232.827 107.004 233.106 106.43C233.385 105.839 233.845 105.42 234.485 105.174C235.125 104.928 236.028 104.813 237.193 104.83H238.054C238.136 104.83 238.202 104.862 238.251 104.928C238.317 104.977 238.35 105.043 238.35 105.125V106.848C238.35 106.93 238.317 107.004 238.251 107.07C238.202 107.119 238.136 107.144 238.054 107.144H237.414C236.709 107.144 236.216 107.283 235.937 107.562C235.675 107.841 235.543 108.35 235.543 109.088V109.334C235.543 109.416 235.585 109.458 235.667 109.458H238.104ZM245.263 122.258C243.967 122.258 242.851 121.93 241.915 121.273C240.996 120.617 240.348 119.706 239.971 118.541C239.692 117.655 239.552 116.719 239.552 115.735C239.552 114.684 239.683 113.749 239.946 112.928C240.323 111.78 240.98 110.885 241.915 110.245C242.851 109.605 243.975 109.285 245.288 109.285C246.535 109.285 247.61 109.605 248.512 110.245C249.431 110.885 250.08 111.771 250.457 112.904C250.752 113.692 250.9 114.627 250.9 115.71C250.9 116.744 250.761 117.679 250.482 118.516C250.104 119.681 249.456 120.6 248.537 121.273C247.618 121.93 246.527 122.258 245.263 122.258ZM245.263 119.796C245.87 119.796 246.387 119.624 246.814 119.279C247.257 118.935 247.577 118.451 247.774 117.827C247.938 117.285 248.02 116.596 248.02 115.759C248.02 114.873 247.938 114.184 247.774 113.692C247.593 113.068 247.282 112.592 246.838 112.264C246.395 111.919 245.854 111.747 245.214 111.747C244.607 111.747 244.081 111.919 243.638 112.264C243.195 112.592 242.875 113.068 242.678 113.692C242.514 114.266 242.432 114.955 242.432 115.759C242.432 116.563 242.514 117.253 242.678 117.827C242.859 118.451 243.171 118.935 243.614 119.279C244.073 119.624 244.623 119.796 245.263 119.796Z" fill="white"/>
</svg>
