<svg width="62" height="62" viewBox="0 0 62 62" fill="none" xmlns="http://www.w3.org/2000/svg">
<path d="M30.7606 0.300537L59.9576 21.5134L48.8053 55.8365H12.7158L1.56358 21.5134L30.7606 0.300537Z" fill="#A259FF"/>
<path fill-rule="evenodd" clip-rule="evenodd" d="M23.3458 34.409C24.2684 33.4864 25.5198 32.968 26.8246 32.968H34.6963C36.0011 32.968 37.2524 33.4864 38.1751 34.409C39.0977 35.3316 39.6161 36.583 39.6161 37.8878V39.8557C39.6161 40.3992 39.1755 40.8397 38.6321 40.8397C38.0887 40.8397 37.6481 40.3992 37.6481 39.8557V37.8878C37.6481 37.1049 37.3371 36.3541 36.7835 35.8005C36.23 35.2469 35.4791 34.9359 34.6963 34.9359H26.8246C26.0417 34.9359 25.2909 35.2469 24.7373 35.8005C24.1837 36.3541 23.8727 37.1049 23.8727 37.8878V39.8557C23.8727 40.3992 23.4322 40.8397 22.8887 40.8397C22.3453 40.8397 21.9048 40.3992 21.9048 39.8557V37.8878C21.9048 36.583 22.4231 35.3316 23.3458 34.409Z" fill="white"/>
<path fill-rule="evenodd" clip-rule="evenodd" d="M30.7606 23.1286C29.1303 23.1286 27.8087 24.4502 27.8087 26.0804C27.8087 27.7107 29.1303 29.0323 30.7606 29.0323C32.3909 29.0323 33.7125 27.7107 33.7125 26.0804C33.7125 24.4502 32.3909 23.1286 30.7606 23.1286ZM25.8408 26.0804C25.8408 23.3633 28.0435 21.1606 30.7606 21.1606C33.4777 21.1606 35.6804 23.3633 35.6804 26.0804C35.6804 28.7976 33.4777 31.0002 30.7606 31.0002C28.0435 31.0002 25.8408 28.7976 25.8408 26.0804Z" fill="white"/>
</svg>
