<svg width="62" height="62" viewBox="0 0 62 62" fill="none" xmlns="http://www.w3.org/2000/svg">
<path d="M2.53522 21.8291L30.7606 1.32218L58.9859 21.8291L48.2048 55.01H13.3163L2.53522 21.8291Z" stroke="#A259FF" stroke-width="1.65305"/>
<path fill-rule="evenodd" clip-rule="evenodd" d="M22.8894 27.0644C22.346 27.0644 21.9054 27.5049 21.9054 28.0484V37.888C21.9054 38.4314 22.346 38.8719 22.8894 38.8719H38.6327C39.1762 38.8719 39.6167 38.4314 39.6167 37.888V28.0484C39.6167 27.5049 39.1762 27.0644 38.6327 27.0644H22.8894ZM19.9375 28.0484C19.9375 26.4181 21.2591 25.0965 22.8894 25.0965H38.6327C40.263 25.0965 41.5846 26.4181 41.5846 28.0484V37.888C41.5846 39.5182 40.263 40.8398 38.6327 40.8398H22.8894C21.2591 40.8398 19.9375 39.5182 19.9375 37.888V28.0484Z" fill="#A259FF"/>
<path fill-rule="evenodd" clip-rule="evenodd" d="M26.7058 22.0252C27.2594 21.4716 28.0102 21.1606 28.7931 21.1606H32.729C33.5119 21.1606 34.2627 21.4716 34.8163 22.0252C35.3698 22.5788 35.6808 23.3296 35.6808 24.1125V39.8559C35.6808 40.3993 35.2403 40.8398 34.6969 40.8398C34.1535 40.8398 33.7129 40.3993 33.7129 39.8559V24.1125C33.7129 23.8516 33.6093 23.6013 33.4247 23.4168C33.2402 23.2322 32.9899 23.1286 32.729 23.1286H28.7931C28.5322 23.1286 28.2819 23.2322 28.0974 23.4168C27.9128 23.6013 27.8092 23.8516 27.8092 24.1125V39.8559C27.8092 40.3993 27.3686 40.8398 26.8252 40.8398C26.2818 40.8398 25.8413 40.3993 25.8413 39.8559V24.1125C25.8413 23.3296 26.1523 22.5788 26.7058 22.0252Z" fill="#A259FF"/>
</svg>
