<svg width="48" height="48" viewBox="0 0 48 48" fill="none" xmlns="http://www.w3.org/2000/svg">
<path d="M24 32.0001C23.4333 32.0001 22.958 31.8081 22.574 31.4241C22.19 31.0401 21.9987 30.5654 22 30.0001V15.7001L18.25 19.4501C17.85 19.8501 17.3833 20.0501 16.85 20.0501C16.3167 20.0501 15.8333 19.8334 15.4 19.4001C15 19.0001 14.8087 18.5254 14.826 17.9761C14.8433 17.4268 15.0347 16.9681 15.4 16.6001L22.6 9.4001C22.8 9.2001 23.0167 9.05876 23.25 8.9761C23.4833 8.89343 23.7333 8.85143 24 8.8501C24.2667 8.8501 24.5167 8.8921 24.75 8.9761C24.9833 9.0601 25.2 9.20143 25.4 9.4001L32.6 16.6001C33 17.0001 33.192 17.4754 33.176 18.0261C33.16 18.5768 32.968 19.0348 32.6 19.4001C32.2 19.8001 31.7247 20.0088 31.174 20.0261C30.6233 20.0434 30.1487 19.8514 29.75 19.4501L26 15.7001V30.0001C26 30.5668 25.808 31.0421 25.424 31.4261C25.04 31.8101 24.5653 32.0014 24 32.0001ZM12 40.0001C10.9 40.0001 9.958 39.6081 9.174 38.8241C8.39 38.0401 7.99867 37.0988 8 36.0001V32.0001C8 31.4334 8.192 30.9581 8.576 30.5741C8.96 30.1901 9.43467 29.9988 10 30.0001C10.5667 30.0001 11.042 30.1921 11.426 30.5761C11.81 30.9601 12.0013 31.4348 12 32.0001V36.0001H36V32.0001C36 31.4334 36.192 30.9581 36.576 30.5741C36.96 30.1901 37.4347 29.9988 38 30.0001C38.5667 30.0001 39.042 30.1921 39.426 30.5761C39.81 30.9601 40.0013 31.4348 40 32.0001V36.0001C40 37.1001 39.608 38.0421 38.824 38.8261C38.04 39.6101 37.0987 40.0014 36 40.0001H12Z" fill="#A259FF"/>
</svg>
