<svg width="128" height="128" viewBox="0 0 128 128" fill="none" xmlns="http://www.w3.org/2000/svg">
<g clip-path="url(#clip0_50_386)">
<path d="M100.283 45.2959C105.573 47.873 111.566 48.6359 117.333 47.4666V106.667C117.333 108.081 116.771 109.438 115.771 110.438C114.771 111.438 113.414 112 112 112H16C14.5855 112 13.2289 111.438 12.2287 110.438C11.2285 109.438 10.6666 108.081 10.6666 106.667V21.3333C10.6666 19.9188 11.2285 18.5622 12.2287 17.562C13.2289 16.5618 14.5855 15.9999 16 15.9999H85.8666C85.5146 17.7226 85.3333 19.5093 85.3333 21.3333C85.3244 27.6695 87.5811 33.8002 91.696 38.6186L64.3253 62.3092L30.1173 33.2692L23.216 41.3973L64.3893 76.3572L100.283 45.2959ZM112 37.3333C109.899 37.3333 107.818 36.9194 105.877 36.1153C103.936 35.3112 102.172 34.1327 100.686 32.647C99.2005 31.1612 98.022 29.3974 97.2179 27.4562C96.4138 25.515 96 23.4344 96 21.3333C96 19.2321 96.4138 17.1515 97.2179 15.2103C98.022 13.2691 99.2005 11.5053 100.686 10.0195C102.172 8.53381 103.936 7.35525 105.877 6.55118C107.818 5.7471 109.899 5.33325 112 5.33325C116.243 5.33325 120.313 7.01896 123.314 10.0195C126.314 13.0201 128 17.0898 128 21.3333C128 25.5767 126.314 29.6464 123.314 32.647C120.313 35.6475 116.243 37.3333 112 37.3333Z" fill="#A259FF"/>
</g>
<defs>
<clipPath id="clip0_50_386">
<rect width="128" height="128" fill="white"/>
</clipPath>
</defs>
</svg>
