<svg width="20" height="20" viewBox="0 0 20 20" fill="none" xmlns="http://www.w3.org/2000/svg">
<path d="M18.1673 0H1.83268C0.833333 0 0 0.833333 0 1.83268V18.1673C0 19.1667 0.833333 20 1.83268 20H18.1673C19.1667 20 20 19.1667 20 18.1673V1.83268C20 0.833333 19.1667 0 18.1673 0ZM5.83333 16.6667H2.5V7.5H5.83333V16.6667ZM4.16667 6.41602C3.16732 6.41602 2.5 5.7487 2.5 4.91536C2.5 4.00065 3.16732 3.33333 4.16667 3.33333C5.16602 3.33333 5.83333 4.00065 5.83333 4.83398C5.83333 5.7487 5.16602 6.41602 4.16667 6.41602ZM17.5 16.6667H14.1667V11.6667C14.1667 10.332 13.2487 10 13.0013 10C12.7507 10 11.6667 10.166 11.6667 11.6667C11.6667 11.8327 11.6667 16.6667 11.6667 16.6667H8.33333V7.5H11.6667V8.83464C12.168 8.08268 13.0013 7.5 14.5833 7.5C16.1654 7.5 17.5 8.75 17.5 11.6667V16.6667Z" fill="#65676B"/>
</svg>
