<svg width="20" height="20" viewBox="0 0 20 20" fill="none" xmlns="http://www.w3.org/2000/svg">
<path d="M20 2.35795C19.2522 2.76989 18.4989 3.07528 17.6674 3.17472C18.4989 2.56392 19.1685 1.53409 19.4978 0.411933C18.6663 1.02273 17.8348 1.43466 16.9196 1.64063C16.0826 0.617898 15 0 13.8337 0C11.5848 0 9.74889 2.25852 9.74889 5.02841C9.74889 5.43324 9.74888 5.84517 9.83259 6.15767C5.53571 6.15767 2.58929 3.07528 0.591519 0C0.172991 0.717329 0.00558002 1.64063 0.00558002 2.56392C0.00558002 4.30398 0.758929 5.84517 1.84152 6.76847C1.17188 6.66903 0.507813 6.46307 0.00558002 6.15767C0.00558002 6.15767 0.00558002 6.15767 0.00558002 6.2571C0.00558002 8.72159 1.42299 10.767 3.25893 11.179C2.92411 11.2784 2.58929 11.3849 2.17076 11.3849C1.92522 11.3849 1.67411 11.3849 1.42299 11.2855C1.92522 13.3381 4.25223 15.696 6.08259 15.696C4.66518 17.0241 3.34821 18.1818 0.714286 18.1818C0.379464 18.1818 0.647321 18.1818 0 18.1818C1.83036 19.6165 4.00112 20 6.25 20C13.8337 20 17.9185 12.3082 17.9185 5.63921C17.9185 5.43324 17.9185 5.23437 17.9185 5.02841C18.75 4.30398 19.4196 3.38778 20 2.35795Z" fill="#65676B"/>
</svg>
